<svg xmlns="http://www.w3.org/2000/svg" viewBox="0 0 964.07 964.07" width="512" height="512" fill="#333" xmlns:v="https://vecta.io/nano"><path d="M850.662 877.56l-10.226 1.831-278.103 49.037c-11.37 1.319-19.864.651-25.976-2.042-3.818-1.682-5.886-3.724-6.438-4.623.268-1.597 2.299-5.405 3.539-7.73 1.207-2.263 2.574-4.826 3.772-7.558 7.945-18.13 2.386-36.521-14.51-47.999-12.599-8.557-29.304-12.03-49.666-10.325-12.155 1.019-225.218 36.738-342.253 56.437l-57.445 45.175 402.622-66.735c11.996-1.007 21.355.517 27.074 4.4 3.321 2.257 2.994 3.003 2.12 4.997-.656 1.497-1.599 3.264-2.596 5.135-3.835 7.189-9.087 17.034-7.348 29.229 1.907 13.374 11.753 24.901 27.014 31.626 8.58 3.78 18.427 5.654 29.846 5.654 4.508 0 9.261-.292 14.276-.874 9.183-1.065 103.471-17.67 280.244-49.354l10.169-1.821c9.516-1.688 15.861-10.772 14.172-20.289s-10.766-15.861-20.287-14.171zM231.14 707.501L82.479 863.005c-16.373 17.127-27.906 38.294-33.419 61.338l211.087-166.001c66.081 29.303 118.866 38.637 159.32 38.637 71.073 0 104.065-28.826 104.065-28.826-66.164-34.43-75.592-98.686-75.592-98.686 50.675 21.424 156.235 46.678 156.235 46.678 140.186-93.563 213.45-296.138 213.45-296.138-14.515 3.99-28.395 5.652-41.475 5.652-65.795 0-111-42.13-111-42.13l183.144-39.885C909.186 218.71 915.01 0 915.01 0L358.176 495.258A412.49 412.49 0 0 0 231.14 707.501z"/></svg>