<?xml version="1.0" encoding="iso-8859-1"?>
<!-- Generator: Adobe Illustrator 19.0.0, SVG Export Plug-In . SVG Version: 6.00 Build 0)  -->
<svg version="1.1" id="Capa_1" xmlns="http://www.w3.org/2000/svg" xmlns:xlink="http://www.w3.org/1999/xlink" x="0px" y="0px"
	 viewBox="0 0 512 512" style="enable-background:new 0 0 512 512;" xml:space="preserve">
<g>
	<g>
		<path d="M256,0C114.833,0,0,114.844,0,256s114.833,256,256,256s256-114.844,256-256S397.167,0,256,0z M234.667,373.333
			c0,17.646-14.354,32-32,32h-64c-17.646,0-32-14.354-32-32v-64c0-17.646,14.354-32,32-32h64c17.646,0,32,14.354,32,32V373.333z
			 M234.667,202.667c0,17.646-14.354,32-32,32h-64c-17.646,0-32-14.354-32-32v-64c0-17.646,14.354-32,32-32h64
			c17.646,0,32,14.354,32,32V202.667z M405.333,373.333c0,17.646-14.354,32-32,32h-64c-17.646,0-32-14.354-32-32v-64
			c0-17.646,14.354-32,32-32h64c17.646,0,32,14.354,32,32V373.333z M405.333,202.667c0,17.646-14.354,32-32,32h-64
			c-17.646,0-32-14.354-32-32v-64c0-17.646,14.354-32,32-32h64c17.646,0,32,14.354,32,32V202.667z"/>
	</g>
</g>
<g>
</g>
<g>
</g>
<g>
</g>
<g>
</g>
<g>
</g>
<g>
</g>
<g>
</g>
<g>
</g>
<g>
</g>
<g>
</g>
<g>
</g>
<g>
</g>
<g>
</g>
<g>
</g>
<g>
</g>
</svg>
