<svg xmlns="http://www.w3.org/2000/svg" viewBox="0 0 512 512" xmlns:v="https://vecta.io/nano"><path d="M256 0C114.833 0 0 114.844 0 256s114.833 256 256 256 256-114.844 256-256S397.167 0 256 0zm-21.333 373.333c0 17.646-14.354 32-32 32h-64c-17.646 0-32-14.354-32-32v-64c0-17.646 14.354-32 32-32h64c17.646 0 32 14.354 32 32v64zm0-170.666c0 17.646-14.354 32-32 32h-64c-17.646 0-32-14.354-32-32v-64c0-17.646 14.354-32 32-32h64c17.646 0 32 14.354 32 32v64zm170.666 170.666c0 17.646-14.354 32-32 32h-64c-17.646 0-32-14.354-32-32v-64c0-17.646 14.354-32 32-32h64c17.646 0 32 14.354 32 32v64zm0-170.666c0 17.646-14.354 32-32 32h-64c-17.646 0-32-14.354-32-32v-64c0-17.646 14.354-32 32-32h64c17.646 0 32 14.354 32 32v64z"/></svg>