<svg xmlns="http://www.w3.org/2000/svg" viewBox="0 0 1024 1024" width="64" height="64" fill="#ea6f5a" xmlns:v="https://vecta.io/nano"><path d="M630.817 591.217H393.203c-21.781 0-39.604 17.82-39.604 39.601s17.823 39.601 39.604 39.601h237.614c21.781 0 39.602-17.82 39.602-39.601s-17.821-39.601-39.602-39.601zM393.203 432.805h118.806c21.781 0 39.602-17.821 39.602-39.602S533.79 353.6 512.009 353.6H393.203c-21.781 0-39.604 17.821-39.604 39.603s17.823 39.602 39.604 39.602zM511.999.607C229.565.607.606 229.565.606 512s228.959 511.395 511.393 511.395S1023.393 794.435 1023.393 512 794.434.607 511.999.607zm316.829 623.681c0 113.021-91.996 204.523-205.813 204.523H401.222c-113.737 0-206.052-91.502-206.052-204.523V399.795c.079-113.025 92.314-204.604 206.052-204.604h103.854c113.817 0 204.943 84.987 204.943 198.012 1.487 21.208 20.555 39.602 42.316 39.602h35.523c22.75 0 40.97 23.86 40.97 46.454v145.028z"/></svg>