<?xml version="1.0" standalone="no"?><!DOCTYPE svg PUBLIC "-//W3C//DTD SVG 1.1//EN" "http://www.w3.org/Graphics/SVG/1.1/DTD/svg11.dtd"><svg t="1487774503712" class="icon" style="" viewBox="0 0 1024 1024" version="1.1" xmlns="http://www.w3.org/2000/svg" p-id="1970" xmlns:xlink="http://www.w3.org/1999/xlink" width="64" height="64"><defs><style type="text/css"></style></defs><path d="M630.816594 591.217203 393.202848 591.217203c-21.781072 0-39.603996 17.819854-39.603996 39.600927s17.822924 39.600927 39.603996 39.600927l237.613746 0c21.781072 0 39.60195-17.819854 39.60195-39.600927S652.597667 591.217203 630.816594 591.217203z" p-id="1971" fill="#ea6f5a"></path><path d="M393.202848 432.80531l118.80585 0c21.781072 0 39.60195-17.820877 39.60195-39.60195 0-21.782096-17.820877-39.602973-39.60195-39.602973l-118.80585 0c-21.781072 0-39.603996 17.820877-39.603996 39.602973C353.598852 414.984433 371.421776 432.80531 393.202848 432.80531z" p-id="1972" fill="#ea6f5a"></path><path d="M511.999488 0.606821c-282.434557 0-511.393179 228.958622-511.393179 511.393179 0 282.433534 228.958622 511.395226 511.393179 511.395226s511.393179-228.960669 511.393179-511.395226C1023.392668 229.565443 794.434046 0.606821 511.999488 0.606821zM828.82839 624.287389c0 113.0211-91.996251 204.523093-205.813482 204.523093L401.222499 828.810482c-113.737414 0-206.051913-91.501994-206.051913-204.523093L195.170586 399.795499c0.078795-113.025193 92.314499-204.603935 206.051913-204.603935L505.076822 195.191564c113.817232 0 204.942649 84.986603 204.942649 198.011796 1.486864 21.208021 20.555152 39.60195 42.315758 39.60195l35.523051 0c22.750143 0 40.97011 23.860431 40.97011 46.454008L828.82839 624.287389z" p-id="1973" fill="#ea6f5a"></path></svg>