<svg xmlns="http://www.w3.org/2000/svg" xmlns:xlink="http://www.w3.org/1999/xlink" viewBox="0 0 64 64" xmlns:v="https://vecta.io/nano"><path d="M53.979 9.143h-3.968c-.083 0-.156.028-.233.047V5.023C49.778 2.253 47.473 0 44.64 0H10.217C7.384 0 5.079 2.253 5.079 5.023v46.843c0 2.77 2.305 5.023 5.138 5.023h6.037v2.268c0 2.671 2.216 4.843 4.941 4.843h32.784c2.725 0 4.941-2.173 4.941-4.843V13.986c0-2.671-2.216-4.843-4.941-4.843zM7.111 51.866V5.023c0-1.649 1.394-2.991 3.106-2.991H44.64c1.712 0 3.106 1.342 3.106 2.991v46.843c0 1.649-1.394 2.991-3.106 2.991H10.217c-1.712 0-3.106-1.342-3.106-2.991zm49.778 7.291c0 1.551-1.306 2.812-2.91 2.812H21.195c-1.604 0-2.91-1.261-2.91-2.812v-2.268H44.64c2.833 0 5.138-2.253 5.138-5.023V11.128c.077.019.15.047.233.047h3.968c1.604 0 2.91 1.261 2.91 2.812v45.171z"/><use xlink:href="#B"/><use xlink:href="#B" y="8.127"/><use xlink:href="#B" y="16.254"/><path d="M28.444 37.587h-12.19c-.562 0-1.016.454-1.016 1.016s.454 1.016 1.016 1.016h12.19c.562 0 1.016-.454 1.016-1.016s-.454-1.016-1.016-1.016z"/><defs ><path id="B" d="M38.603 13.206H16.254c-.562 0-1.016.454-1.016 1.016s.454 1.016 1.016 1.016h22.349c.562 0 1.016-.454 1.016-1.016s-.454-1.016-1.016-1.016z"/></defs></svg>