<?xml version="1.0" standalone="no"?><!DOCTYPE svg PUBLIC "-//W3C//DTD SVG 1.1//EN" "http://www.w3.org/Graphics/SVG/1.1/DTD/svg11.dtd"><svg t="1499330623092" class="icon" style="" viewBox="0 0 1024 1024" version="1.1" xmlns="http://www.w3.org/2000/svg" p-id="2381" xmlns:xlink="http://www.w3.org/1999/xlink" width="200" height="200"><defs><style type="text/css"></style></defs><path d="M979.780582 327.804891c4.068812-10.921547 7.923476-25.697759 8.994215-42.829598 1.499036-30.194866-5.996144-72.596168-48.611593-111.142806 2.783924-19.701615 2.783924-50.967221-14.562063-82.018679-22.913835-41.116414-67.670764-68.955652-133.200049-82.875271-43.900338-9.422511-101.506146-11.349843-171.31839-5.996144-140.695228-2.783924-277.74994 14.562063-285.459268 15.632803l-50.324777 5.996144c-14.562063-10.279103-32.336346-16.275247-51.395517-16.275247l-130.630273 0c-49.254037 0-89.085563 40.045674-89.085563 89.085563l0 347.99048c0 49.254037 40.045674 89.085563 89.085563 89.085563l130.630273 0c15.418655 0 29.76657-3.854664 42.401302-10.707399 8.994215 19.701615 22.271391 42.187154 41.973006 62.959508 1.07074 1.07074 2.14148 2.14148 3.426368 2.998072 67.242468 51.609665 146.477224 237.490119 174.53061 313.298506-2.783924 23.556279-5.567848 74.5235 17.988431 102.14859 10.493251 12.206435 25.055315 18.845023 41.330562 18.845023 16.489395 0 73.45276-3.854664 109.001326-52.894553 33.621234-46.684261 35.548566-116.496505 5.567848-207.723548-25.269463-76.66498-27.62509-110.71451-26.768498-124.419981 11.563991 2.569776 22.913835 4.925404 33.835382 6.852736l0.214148 0c1.927332 0.428296 49.039889 10.921547 105.36081 13.491323 80.091348 3.854664 138.125452-10.064955 171.960834-41.116414 46.684261-42.61545 41.116414-97.009039 27.196794-131.701013 11.992287-15.632803 26.554351-41.116414 27.839238-73.666908C1010.617892 383.26922 1000.767085 354.787538 979.780582 327.804891zM233.90314 476.851891l-130.630273 0c-17.345987 0-31.265606-14.133767-31.265606-31.265606l0-347.99048c0-17.345987 14.133767-31.265606 31.265606-31.265606l130.630273 0c17.345987 0 31.265606 14.133767 31.265606 31.265606l0 347.99048C265.168746 462.932272 251.249127 476.851891 233.90314 476.851891zM922.817217 497.624246c0 0.214148 7.49518 11.992287 10.064955 28.053386 3.21222 19.915763-2.355628 36.405158-17.345987 50.110629-40.902266 37.26175-158.683659 28.69583-224.427091 14.133767-0.856592-0.214148-1.713184-0.428296-2.783924-0.642444-11.778139-2.14148-24.412871-4.711256-37.26175-7.49518-13.705471-4.925404-32.550494-4.28296-46.684261 8.351772-28.481682 25.269463-25.269463 82.661123 10.493251 191.662449 23.556279 71.525428 24.412871 125.490721 2.569776 155.685587-18.416727 25.483611-48.825741 28.69583-60.389733 28.909978-5.139552-8.56592-6.638588-37.904194-2.783924-62.102917 0.642444-4.711256 0.214148-9.636659-1.284888-14.347915-4.068812-10.921547-98.079778-268.327429-194.232225-344.564113-25.055315-27.196794-35.976862-59.104845-39.831526-73.45276 2.569776-8.351772 4.068812-17.345987 4.068812-26.554351l0-347.776332c0-6.42444-0.642444-12.848879-1.927332-18.845023l21.628947-2.569776 0.214148 0c1.284888-0.214148 140.695228-18.202579 278.392384-15.204507 0.856592 0 1.927332 0 2.998072 0 64.88684-5.139552 117.353097-3.640516 156.113883 4.711256 47.969149 10.279103 79.663052 28.267534 94.225115 53.751145 15.204507 26.340203 6.852736 53.536997 6.210292 56.106773-4.497108 11.992287-0.428296 25.055315 9.850807 32.764642 63.387804 47.540853 34.263678 103.005182 30.409014 109.857918-7.066884 11.135695-5.3537 25.269463 3.854664 34.906122 18.416727 19.273319 27.410942 38.546638 26.768498 57.391661-0.856592 28.053386-22.485539 49.039889-23.984575 50.324777C917.035221 469.999155 915.10789 485.631958 922.817217 497.624246z" p-id="2382" fill="#999999"></path></svg>