<?xml version="1.0" standalone="no"?><!DOCTYPE svg PUBLIC "-//W3C//DTD SVG 1.1//EN" "http://www.w3.org/Graphics/SVG/1.1/DTD/svg11.dtd"><svg t="1493880399198" class="icon" style="" viewBox="0 0 1025 1024" version="1.1" xmlns="http://www.w3.org/2000/svg" p-id="3269" xmlns:xlink="http://www.w3.org/1999/xlink" width="32.03125" height="32"><defs><style type="text/css"></style></defs><path d="M958.7 512.6c-3.6-18.8-10.6-37.8-20.8-56.8 8.7-17 17.9-43.5 13.3-74.5-4.2-27.8-18.3-52.7-42.2-74.3 6.9-19 12.6-46.1 5.7-75.8-6.8-29.6-24.3-54.8-52.1-75.2-0.5-4.9-1.3-10.5-2.6-16.7-5.7-26.8-18.4-51.6-36.7-71.7-39.9-43.7-104.4-66-191.7-66.1-0.5 0-1.1 0-1.6 0-143.7 0-220.3 24.7-282 44.6-38 12.3-68 21.9-104.3 21.9L72.3 68c-39.9 0-72.3 32.4-72.3 72.3l0 391.6c0 40.1 32.6 72.6 72.6 72.6L195.3 604.5c21.5 0 42.6 5.7 60.8 16.6 25.6 15.2 50.3 35.5 73.4 60.1 43.3 46 73.7 103.8 87.8 167.1 2.1 9.2 3.7 19.5 5.4 30.4 3.7 23.7 7.9 50.5 18.5 74.2 13.7 30.8 36.1 51.4 66.4 61.1 21.6 6.9 44.5 9.7 66 7.9 26.4-2.2 50.1-10.8 70.4-25.5 21.8-15.9 38.7-38.5 50.2-67 12-29.7 18-66.3 18-108.7 0-0.7 0-1.5-0.1-2.2-0.2-2.8-4.9-66.6-24.4-118.6l116.7 0c27.9 0 55-7.2 78.4-20.9 28.4-16.5 62.9-51.5 74.6-99.9C962.7 557.7 963.1 535.3 958.7 512.6zM72.3 132l120 0 0 408.6L72.6 540.6c-4.8 0-8.6-3.9-8.6-8.6L64 140.3C64 135.7 67.7 132 72.3 132zM873.6 472.7c21.1 32.9 28.3 63.6 21.6 91.4-7 28.9-28.4 50.2-44.6 59.6-13.7 8-29.7 12.2-46.2 12.2L677.7 635.9c-19.2 0-37 9.6-47.6 25.6-10.7 16.1-12.5 36.3-5 54.1 15.1 35.5 21.7 87.7 23.1 106.3-0.2 60.4-14.7 102.9-42 122.8-29.8 21.7-68.1 11.9-79.1 8.4-26.6-8.5-33.3-33.4-41.2-84.3-1.8-11.4-3.6-23.2-6.1-34.4-16.6-74.5-52.5-142.6-103.7-197-27.2-28.9-56.6-52.9-87.2-71.2-10.3-6.2-21.2-11.3-32.5-15.2L256.4 131.7c40.5-1.9 73.6-12.5 111.3-24.7 57.4-18.5 128.7-41.5 262.4-41.5 0.5 0 1 0 1.5 0 67 0.1 116.6 15.4 143.7 44.4 25.1 26.8 24.2 57.7 24 60.8-1.4 12.4 4.7 23.7 15.4 30.2 20.9 12.6 33.6 27.5 37.6 44.3 6.3 26.4-8.8 52.2-9.9 54-9.7 14.6-5.6 33.9 9 43.8 21.6 14.6 33.9 30.6 36.6 47.4 3.7 23-11 43.5-12.3 45.2C866.7 446.2 866.1 461 873.6 472.7z" p-id="3270"></path></svg>