<?xml version="1.0" standalone="no"?><!DOCTYPE svg PUBLIC "-//W3C//DTD SVG 1.1//EN" "http://www.w3.org/Graphics/SVG/1.1/DTD/svg11.dtd"><svg t="1491828178151" class="icon" style="" viewBox="0 0 1000 1000" version="1.1" xmlns="http://www.w3.org/2000/svg" p-id="3985" xmlns:xlink="http://www.w3.org/1999/xlink" width="32" height="32"><defs><style type="text/css"></style></defs><path d="M935.4981 587.8693C801.0982 852.8806 503.5816 1000 503.5816 1000s-35.626-18.0273-87.3522-51.7474l249.8715-452.3697h-111.39277592692838l50.148-453.6009c68.8039-55.1318 159.855-57.716 279.568 1.4151C1039.6556 134.2697 1019.3689 422.4779 935.4981 587.8693M387.6201 558.8902h111.39277592692838l-96.136 380.6257C300.324 870.847 144.684 745.9418 59.9435 575.3794c-79.9544-161.0257-96.5708-443.3871 54.8255-531.6823 215.6052-93.1568 312.0135-36.8572 384.7876 164.0384 21.9737-60.9151 49.387-107.6159 81.9126-142.3187L387.6201 558.8902z" p-id="3986" fill="#999999"></path></svg>