<svg xmlns="http://www.w3.org/2000/svg" viewBox="0 0 1024 1024" width="200" height="200" xmlns:v="https://vecta.io/nano"><path d="M979.781 327.805c4.069-10.922 7.923-25.698 8.994-42.83 1.499-30.195-5.996-72.596-48.612-111.143 2.784-19.702 2.784-50.967-14.562-82.019-22.914-41.116-67.671-68.956-133.2-82.875-43.9-9.423-101.506-11.35-171.318-5.996C480.387.158 343.333 17.504 335.623 18.575l-50.325 5.996c-14.562-10.279-32.336-16.275-51.396-16.275h-130.63c-49.254 0-89.086 40.046-89.086 89.086v347.99c0 49.254 40.046 89.086 89.086 89.086h130.63c15.419 0 29.767-3.855 42.401-10.707 8.994 19.702 22.271 42.187 41.973 62.96 1.071 1.071 2.141 2.141 3.426 2.998 67.242 51.61 146.477 237.49 174.531 313.299-2.784 23.556-5.568 74.524 17.988 102.149 10.493 12.206 25.055 18.845 41.331 18.845 16.489 0 73.453-3.855 109.001-52.895 33.621-46.684 35.549-116.497 5.568-207.724-25.269-76.665-27.625-110.715-26.768-124.42 11.564 2.57 22.914 4.925 33.835 6.853h.214c1.927.428 49.04 10.922 105.361 13.491 80.091 3.855 138.125-10.065 171.961-41.116 46.684-42.615 41.116-97.009 27.197-131.701 11.992-15.633 26.554-41.116 27.839-73.667.857-29.552-8.994-58.034-29.981-85.017zM233.903 476.852h-130.63c-17.346 0-31.266-14.134-31.266-31.266V97.596c0-17.346 14.134-31.266 31.266-31.266h130.63c17.346 0 31.266 14.134 31.266 31.266v347.99c0 17.346-13.92 31.266-31.266 31.266zm688.914 20.772c0 .214 7.495 11.992 10.065 28.053 3.212 19.916-2.356 36.405-17.346 50.111-40.902 37.262-158.684 28.696-224.427 14.134-.857-.214-1.713-.428-2.784-.642-11.778-2.141-24.413-4.711-37.262-7.495-13.705-4.925-32.55-4.283-46.684 8.352-28.482 25.269-25.269 82.661 10.493 191.662 23.556 71.525 24.413 125.491 2.57 155.686-18.417 25.484-48.826 28.696-60.39 28.91-5.14-8.566-6.639-37.904-2.784-62.103.642-4.711.214-9.637-1.285-14.348-4.069-10.922-98.08-268.327-194.232-344.564-25.055-27.197-35.977-59.105-39.832-73.453 2.57-8.352 4.069-17.346 4.069-26.554V97.596c0-6.424-.642-12.849-1.927-18.845l21.629-2.57h.214c1.285-.214 140.695-18.203 278.392-15.205h2.998c64.887-5.14 117.353-3.641 156.114 4.711 47.969 10.279 79.663 28.268 94.225 53.751 15.205 26.34 6.853 53.537 6.21 56.107-4.497 11.992-.428 25.055 9.851 32.765 63.388 47.541 34.264 103.005 30.409 109.858-7.067 11.136-5.354 25.269 3.855 34.906 18.417 19.273 27.411 38.547 26.768 57.392-.857 28.053-22.486 49.04-23.985 50.325-10.707 9.208-12.635 24.841-4.925 36.833z" fill="#d81e06"/></svg>