<?xml version="1.0" standalone="no"?><!DOCTYPE svg PUBLIC "-//W3C//DTD SVG 1.1//EN" "http://www.w3.org/Graphics/SVG/1.1/DTD/svg11.dtd"><svg t="1488363865711" class="icon" style="" viewBox="0 0 1024 1024" version="1.1" xmlns="http://www.w3.org/2000/svg" p-id="1428" xmlns:xlink="http://www.w3.org/1999/xlink" width="64" height="64"><defs><style type="text/css"></style></defs><path d="M745.263671 308.006979c-76.945463-0.651846-153.900136-0.145309-230.851739-0.145309-78.587869 0-157.179832-0.51063-235.762585 0.144286-76.91374 0.64059-113.155153 37.47859-114.357538 115.179252-0.532119 34.373879-0.843204 68.785619 0.124843 103.142102 1.924839 68.321038 39.491433 107.782795 106.659205 108.2177 160.443156 1.041726 320.903707 0.989537 481.346863 0.01535 65.212234-0.397043 103.699804-38.238906 106.98871-103.124705 1.904373-37.561477 1.570775-75.325569 0.378623-112.939235C857.452823 344.737532 819.995723 308.638359 745.263671 308.006979zM777.411859 502.085186c-1.680269 36.818557-13.985526 50.211589-50.943252 51.238988-50.727335 1.411139-101.522208 0.416486-152.287405 0.444115-21.288862 0.011256-42.578748 0.002047-63.86761 0.002047-67.143213-0.011256-134.289496 0.440022-201.426569-0.156566-51.862181-0.462534-62.317301-11.634991-63.063291-64.289212-0.254803-18.008142-0.948605-36.096103 0.346901-54.019311 2.240017-31.015388 14.765285-45.408189 46.033429-45.62206 145.740292-0.99977 291.492864-1.011027 437.235203-0.107447 33.930787 0.211824 46.167482 14.381545 47.938825 48.662303C778.475074 459.4696 778.379906 480.840326 777.411859 502.085186z" p-id="1429" fill="#22aa2a"></path><path d="M861.442694 820.172755c-39.305191-0.465604-78.623685 0.197498-117.927853-0.354064-10.203386-0.14224-20.36891-2.969635-33.4396-5.015224 8.246825-15.900132 14.029528-27.506471 20.230764-38.883589 6.268774-11.494799 12.970406-22.751167 19.452028-34.131355 9.774621-17.158798 11.231809-34.143635-2.0241-50.225915-19.677155-23.87271-49.124837-20.515243-68.793806 9.949606-19.516496 30.225395-37.157271 61.739133-54.209646 93.446275-9.577123 17.807574-21.533432 26.106588-42.62582 25.488511-47.459918-1.393743-95.000678-1.094938-142.482085-0.12996-18.751063 0.381693-30.286794-6.458085-39.10974-22.821775-16.309454-30.249955-33.653471-59.98007-51.584865-89.303932-18.86158-30.842449-36.950564-38.615483-59.179844-27.41335-25.01779 12.607132-29.537733 34.834366-12.609179 66.940598 11.279904 21.392216 23.669072 42.197054 40.679491 72.333422-41.368176 0-72.323189-0.034792-103.278201 0.011256-22.929222 0.032746-45.930075-0.920976-68.771293 0.543376-26.974351 1.725294-41.922808 15.998369-43.027979 37.97387-1.203408 23.947412 14.712073 39.613206 44.007283 42.23594 11.381212 1.017166 22.915919 0.39295 34.380018 0.39295 219.482807 0.013303 438.96766 0.01228 658.450467 0.011256 6.55223 0 13.105482 0.077771 19.655665-0.039909 41.87062-0.7552 61.204967-13.087063 62.059428-39.520085C922.172847 834.441737 902.831336 820.662919 861.442694 820.172755z" p-id="1430" fill="#22aa2a"></path><path d="M206.91456 204.106608c101.541651 0.38374 203.086371 0.121773 304.630069 0.130983 65.512063 0.011256 131.023102 0.055259 196.535165-0.005117 42.582841-0.037862 85.208661 0.926092 127.728056-0.74599 29.951149-1.175779 44.87607-17.368576 43.529399-41.860387-1.221828-22.222117-15.990183-35.763528-42.648332-38.60832-6.484691-0.692778-13.091156-0.313132-19.640316-0.314155-203.087395-0.00921-406.174789-0.11768-609.262184 0.084934-44.895513 0.046049-64.48057 13.859659-63.22395 42.842761C145.725966 192.45422 163.29511 203.941855 206.91456 204.106608z" p-id="1431" fill="#22aa2a"></path></svg>