<?xml version="1.0" encoding="iso-8859-1"?>
<!-- Generator: Adobe Illustrator 18.0.0, SVG Export Plug-In . SVG Version: 6.00 Build 0)  -->
<!DOCTYPE svg PUBLIC "-//W3C//DTD SVG 1.1//EN" "http://www.w3.org/Graphics/SVG/1.1/DTD/svg11.dtd">
<svg version="1.1" id="Capa_1" xmlns="http://www.w3.org/2000/svg" xmlns:xlink="http://www.w3.org/1999/xlink" x="0px" y="0px"
	 viewBox="0 0 57 57" style="enable-background:new 0 0 57 57;" xml:space="preserve">
<g>
	<g>
		<polygon style="fill:#DCD6CD;" points="0,5.5 0,44.5 28,44.5 56,44.5 56,5.5 		"/>
		<path style="fill:#E8E3D9;" d="M30.965,27.607c-1.637,1.462-4.292,1.462-5.93,0l-2.087-1.843C16.419,31.591,0,44.5,0,44.5h21.607
			h12.787H56c0,0-16.419-12.909-22.948-18.736L30.965,27.607z"/>
		<path style="fill:#EFEBDE;" d="M0,5.5l25.035,22.107c1.637,1.462,4.292,1.462,5.93,0L56,5.5H0z"/>
	</g>
	<g>
		<path style="fill:#F09372;" d="M45,34.7c0.969-2.183,3.109-4.2,5.684-4.2c3.467,0,5.964,2.821,6.278,6.183
			c0,0,0.17,0.835-0.203,2.337c-0.508,2.046-1.701,3.864-3.311,5.251L45,51.5l-8.447-7.229c-1.61-1.387-2.803-3.205-3.311-5.251
			c-0.373-1.502-0.203-2.337-0.203-2.337c0.314-3.362,2.811-6.183,6.278-6.183C41.891,30.5,44.031,32.517,45,34.7z"/>
	</g>
</g>
<g>
</g>
<g>
</g>
<g>
</g>
<g>
</g>
<g>
</g>
<g>
</g>
<g>
</g>
<g>
</g>
<g>
</g>
<g>
</g>
<g>
</g>
<g>
</g>
<g>
</g>
<g>
</g>
<g>
</g>
</svg>
