<?xml version="1.0" standalone="no"?><!DOCTYPE svg PUBLIC "-//W3C//DTD SVG 1.1//EN" "http://www.w3.org/Graphics/SVG/1.1/DTD/svg11.dtd"><svg t="1488465330910" class="icon" style="" viewBox="0 0 1024 1024" version="1.1" xmlns="http://www.w3.org/2000/svg" p-id="7359" xmlns:xlink="http://www.w3.org/1999/xlink" width="64" height="64"><defs><style type="text/css"></style></defs><path d="M516.067556 525.283556c6.001778 6.115556 13.198222 9.272889 20.792889 9.272889 7.907556 0 15.36-3.527111 21.532444-10.069333l186.510222-186.595556c-2.702222-1.024-5.432889-1.706667-8.334222-1.706667L336.867556 336.184889c-2.958222 0-5.688889 0.739556-8.391111 1.706667l187.505778 187.306667C515.982222 525.283556 516.010667 525.283556 516.067556 525.283556z" p-id="7360" fill="#8a8a8a"></path><path d="M573.212444 551.054222c-10.410667 10.638222-23.239111 16.583111-36.352 16.583111-12.913778 0-25.088-5.404444-35.328-15.473778 0 0-0.341333-0.142222-0.455111-0.284444l-192.369778-192.170667c-1.877333 5.290667-3.043556 11.207111-3.043556 17.379556l0.312889 264.647111c0 9.045333 2.304 17.322667 6.144 24.149333l117.134222-116.593778c2.844444-2.816 6.883556-2.048 9.045333 1.678222 2.190222 3.726222 1.621333 9.045333-1.223111 11.918222l-115.057778 114.403556C326.513778 680.618667 331.605333 682.666667 337.152 682.666667l399.616 0c5.546667 0 10.723556-2.076444 15.217778-5.376l-114.176-114.375111c-2.844444-2.901333-3.384889-8.192-1.251556-11.918222 2.218667-3.811556 6.257778-4.437333 9.102222-1.649778l116.224 116.48C765.696 659.057778 768 650.780444 768 641.735111l-0.312889-264.618667c0-6.286222-1.194667-12.117333-3.072-17.436444l-191.061333 191.203556C573.553778 550.855111 573.326222 550.940444 573.212444 551.054222z" p-id="7361" fill="#8a8a8a"></path><path d="M512 967.111111C261.063111 967.111111 56.888889 762.936889 56.888889 512 56.888889 261.063111 261.063111 56.888889 512 56.888889c250.936889 0 455.111111 204.174222 455.111111 455.111111C967.111111 762.936889 762.936889 967.111111 512 967.111111zM512 113.777778C292.408889 113.777778 113.777778 292.408889 113.777778 512c0 219.619556 178.631111 398.222222 398.222222 398.222222 219.619556 0 398.222222-178.602667 398.222222-398.222222C910.222222 292.408889 731.619556 113.777778 512 113.777778z" p-id="7362" fill="#8a8a8a"></path></svg>