<?xml version="1.0" encoding="iso-8859-1"?>
<!-- Generator: Adobe Illustrator 19.0.0, SVG Export Plug-In . SVG Version: 6.00 Build 0)  -->
<svg version="1.1" id="Layer_1" xmlns="http://www.w3.org/2000/svg" xmlns:xlink="http://www.w3.org/1999/xlink" x="0px" y="0px"
	 viewBox="0 0 473.939 473.939" style="enable-background:new 0 0 473.939 473.939;" xml:space="preserve">
<circle style="fill:#CC3731;" cx="236.969" cy="236.967" r="236.967"/>
<path style="fill:#BC2B2A;" d="M404.527,69.384c92.542,92.542,92.546,242.588-0.004,335.137
	c-92.546,92.542-242.595,92.542-335.137,0L404.527,69.384z"/>
<path style="fill:#A52728;" d="M471.95,267.16L336.396,131.606l-28.06,28.06l-29.938-29.938l-38.013,6.93l-13.122,5.545
	l-42.379-8.037l-38.043,23.697l-7.296,72.067l59.244,59.244l-36.355,7.76l-34.926,16.838l-9.167,55.85l103.808,103.812
	c4.905,0.299,9.83,0.505,14.806,0.505C357.59,473.935,457.102,383.769,471.95,267.16z"/>
<g>
	<path style="fill:#FFFFFF;" d="M235.648,141.99c2.193,1.355,4.636,3.33,7.36,5.931c2.615,2.713,5.171,6.05,7.682,9.991
		c2.402,3.734,4.531,8.127,6.391,13.212c1.523,5.078,2.286,11.012,2.286,17.788c-0.198,12.423-2.945,22.357-8.232,29.818
		c-2.574,3.611-5.321,6.941-8.217,9.998c-3.207,3.035-6.619,6.151-10.23,9.31c-2.08,2.144-3.981,4.569-5.744,7.285
		c-2.065,2.821-3.102,6.092-3.102,9.815c0,3.641,1.059,6.623,3.188,8.988c1.792,2.26,3.555,4.239,5.253,5.934l11.783,9.654
		c7.315,6.002,13.736,12.572,19.255,19.805c5.197,7.353,7.899,16.947,8.131,28.797c0,16.827-7.439,31.727-22.301,44.729
		c-15.394,13.448-37.639,20.382-66.694,20.827c-24.325-0.221-42.484-5.407-54.484-15.536c-12.093-9.478-18.159-20.801-18.159-33.99
		c0-6.417,1.961-13.594,5.92-21.482c3.809-7.876,10.728-14.817,20.752-20.793c11.237-6.413,23.053-10.702,35.438-12.853
		c12.258-1.792,22.432-2.818,30.54-3.035c-2.507-3.3-4.741-6.818-6.698-10.559c-2.286-3.637-3.42-8.019-3.42-13.111
		c0-3.065,0.43-5.635,1.302-7.667c0.76-2.17,1.474-4.135,2.118-5.964c-3.944,0.445-7.667,0.681-11.147,0.681
		c-18.492-0.236-32.583-6.05-42.278-17.448c-10.159-10.63-15.233-22.993-15.233-37.1c0-17.059,7.184-32.52,21.571-46.413
		c9.871-8.127,20.127-13.418,30.765-15.925c10.537-2.144,20.411-3.214,29.616-3.214h69.451l-21.444,12.524h-21.422V141.99z
		 M249.055,341.883c0-8.819-2.874-16.486-8.61-23.034c-6.092-6.208-15.596-13.826-28.535-22.874
		c-2.223-0.236-4.819-0.341-7.798-0.341c-1.77-0.217-6.305,0-13.598,0.677c-7.188,1.018-14.548,2.657-22.065,4.917
		c-1.774,0.674-4.251,1.695-7.457,3.046c-3.203,1.471-6.466,3.566-9.789,6.271c-3.207,2.821-5.92,6.32-8.12,10.511
		c-2.556,4.408-3.809,9.714-3.809,15.918c0,12.206,5.512,22.26,16.565,30.17c10.514,7.899,24.879,11.962,43.132,12.198
		c16.363-0.236,28.86-3.843,37.474-10.844C244.853,361.595,249.055,352.738,249.055,341.883z M200.648,240.092
		c9.141-0.337,16.759-3.63,22.847-9.856c2.945-4.412,4.831-8.939,5.669-13.579c0.505-4.64,0.763-8.535,0.763-11.716
		c0-13.68-3.506-27.502-10.507-41.403c-3.289-6.668-7.615-12.112-12.977-16.295c-5.474-3.944-11.768-6.047-18.877-6.275
		c-9.414,0.228-17.227,4.019-23.472,11.379c-5.261,7.689-7.779,16.292-7.543,25.8c0,12.554,3.667,25.613,11.016,39.203
		c3.562,6.335,8.146,11.708,13.788,16.123C186.979,237.892,193.404,240.092,200.648,240.092z"/>
	<polygon style="fill:#FFFFFF;" points="372.59,167.4 336.157,167.4 336.157,130.948 318.499,130.948 318.499,167.4 282.065,167.4 
		282.065,185.05 318.499,185.05 318.499,221.488 336.157,221.488 336.157,185.05 372.59,185.05 	"/>
</g>
<g>
</g>
<g>
</g>
<g>
</g>
<g>
</g>
<g>
</g>
<g>
</g>
<g>
</g>
<g>
</g>
<g>
</g>
<g>
</g>
<g>
</g>
<g>
</g>
<g>
</g>
<g>
</g>
<g>
</g>
</svg>
