<?xml version="1.0" standalone="no"?><!DOCTYPE svg PUBLIC "-//W3C//DTD SVG 1.1//EN" "http://www.w3.org/Graphics/SVG/1.1/DTD/svg11.dtd"><svg t="1487598840153" class="icon" style="" viewBox="0 0 1024 1024" version="1.1" xmlns="http://www.w3.org/2000/svg" p-id="3286" xmlns:xlink="http://www.w3.org/1999/xlink" width="64" height="64"><defs><style type="text/css"></style></defs><path d="M282.363949 13.267165l93.016487 60.819181c4.751211 4.807493 3.577478 9.558703-3.577478 14.309914-11.962449 4.807493-25.043373 14.309914-39.353286 28.620851l-14.309914 17.887392 121.637338-7.154957 46.508243-50.085722 64.396659 53.6632 3.577478 7.154957c-2.40477 2.403746-4.807493 3.577478-7.154957 3.577478l-157.414169 7.154957c30.968315 19.117406 46.508243 39.353286 46.508243 60.819181-2.403746 19.117406-13.136182 31.024597-32.19833 35.775808-19.117406 2.403746-28.620851-2.347464-28.620851-14.309914-2.403746-40.527019-8.384971-66.744123-17.887392-78.706573l-60.819181 3.577478C239.433184 208.859865 178.614004 262.523065 114.218368 317.361021c-4.807493 4.807493-7.154957 2.403746-7.154957-7.154957C188.117448 207.685109 246.588141 108.687398 282.363949 13.267165zM293.096385 413.954987l-7.154957 354.179578c-2.403746 33.372062-20.292162 67.974138-53.6632 103.749946-9.558703 7.154957-15.539928 7.154957-17.887392 0l7.154957-261.163091L221.545792 467.61921l-3.577478-128.792295 82.284051 32.19833c2.347464 0 4.751211 1.230014 7.154957 3.577478l-3.577478 7.154957L293.096385 413.954987zM325.294714 242.231927c69.14787 21.465894 103.749946 40.583301 103.749946 57.241702-4.807493 28.620851-15.539928 47.738257-32.19833 57.241702-11.962449 7.154957-21.465894 3.577478-28.620851-10.732435-19.117406-52.43421-35.775808-84.632539-50.085722-96.594989C315.736011 242.231927 318.139757 239.883439 325.294714 242.231927zM432.622138 667.962098c-7.154957 21.465894-20.292162 39.353286-39.353286 53.6632-9.558703 7.154957-15.539928 4.807493-17.887392-7.154957L375.381459 478.351646c0-28.620851 0-52.433186 0-71.551616-2.403746-7.154957 0-8.329712 7.154957-3.577478l50.085722 32.19833 164.569126-7.154957 28.620851-39.353286 71.551616 39.353286c2.346441 0 3.577478 2.403746 3.577478 7.154957l-21.465894 32.19833 3.577478 153.835667c-2.40477 23.868617-16.714683 52.489468-42.930765 85.86153-11.963473 9.558703-21.465894 9.558703-28.620851 0-2.40477-7.154957-7.154957-15.484669-14.309914-25.043373-4.808516-9.502421-8.385994-16.657378-10.732435-21.465894L432.622138 667.962098zM600.768743 446.153316l-171.724083 3.577478 0 89.439008 146.68071-7.154957c4.751211 0 7.154957 2.403746 7.154957 7.154957 0 4.807493-3.577478 7.154957-10.732435 7.154957l-143.103232 7.154957 3.577478 100.172467 168.146605-7.154957L600.768743 446.153316zM615.078657 331.670935c-45.335535 0-82.284051 3.577478-110.904902 10.732435L479.130382 317.361021l279.051507-14.309914 35.775808-39.353286 75.129094 46.508243c0 2.403746 1.172709 3.577478 3.577478 3.577478 2.346441 2.403746 1.172709 4.807493-3.577478 7.154957l-28.620851 35.775808 3.577478 203.921389 3.577478 143.103232c4.751211 66.744123-31.024597 125.214816-107.327424 175.301562-4.808516 2.347464-8.385994 2.347464-10.732435 0-2.40477-2.403746-2.40477-5.981225 0-10.732435-2.40477-33.428344-14.309914-58.471716-35.775808-75.129094-2.40477-2.403746-3.577478-4.807493-3.577478-7.154957 0-2.403746 1.172709-3.577478 3.577478-3.577478 50.085722 2.347464 72.724325-9.558703 67.974138-35.775808l-3.577478-422.153716L615.078657 331.670935zM615.078657 6.111185l89.439008 53.6632c4.751211 2.403746 3.577478 5.981225-3.577478 10.732435-14.309914 4.807493-26.27441 14.309914-35.775808 28.620851-2.40477 2.403746-4.808516 5.981225-7.154957 10.732435-4.808516 7.154957-9.559727 13.136182-14.309914 17.887392l153.835667-7.154957 46.508243-50.085722 64.396659 53.6632c4.751211 4.807493 4.751211 7.154957 0 7.154957l-196.766432 10.732435c47.681976 26.272363 71.551616 50.085722 71.551616 71.551616-4.808516 21.465894-19.119453 38.179554-42.930765 50.085722-19.119453 2.403746-28.620851-3.577478-28.620851-17.887392-2.40477-50.085722-10.732435-84.632539-25.043373-103.749946l-57.241702 3.577478c-7.154957 7.154957-17.887392 19.117406-32.19833 35.775808-28.620851 35.775808-53.6632 64.396659-75.129094 85.86153-4.807493 2.403746-8.384971 3.577478-10.732435 3.577478-2.40477 0-2.40477-2.347464 0-7.154957C559.010687 163.525354 593.613786 77.662801 615.078657 6.111185z" p-id="3287" fill="#ea6f5a"></path></svg>