<svg xmlns="http://www.w3.org/2000/svg" viewBox="0 0 1024 1024" width="64" height="64" xmlns:v="https://vecta.io/nano"><path d="M282.364 13.267l93.016 60.819c4.751 4.807 3.577 9.559-3.577 14.31-11.962 4.807-25.043 14.31-39.353 28.621l-14.31 17.887 121.637-7.155 46.508-50.086 64.397 53.663 3.577 7.155c-2.405 2.404-4.807 3.577-7.155 3.577l-157.414 7.155c30.968 19.117 46.508 39.353 46.508 60.819-2.404 19.117-13.136 31.025-32.198 35.776-19.117 2.404-28.621-2.347-28.621-14.31-2.404-40.527-8.385-66.744-17.887-78.707l-60.819 3.577c-57.24 52.489-118.059 106.153-182.454 160.991-4.807 4.807-7.155 2.404-7.155-7.155 81.054-102.521 139.525-201.519 175.301-296.939zm10.732 400.688l-7.155 354.18c-2.404 33.372-20.292 67.974-53.663 103.75-9.559 7.155-15.54 7.155-17.887 0l7.155-261.163V467.619l-3.577-128.792 82.284 32.198c2.347 0 4.751 1.23 7.155 3.577l-3.577 7.155-10.733 32.197zm32.198-171.723c69.148 21.466 103.75 40.583 103.75 57.242-4.807 28.621-15.54 47.738-32.198 57.242-11.962 7.155-21.466 3.577-28.621-10.732-19.117-52.434-35.776-84.633-50.086-96.595-2.404-7.156 0-9.504 7.155-7.156zm107.327 425.73c-7.155 21.466-20.292 39.353-39.353 53.663-9.559 7.155-15.54 4.807-17.887-7.155V478.352 406.8c-2.404-7.155 0-8.33 7.155-3.577l50.086 32.198 164.569-7.155 28.621-39.353 71.552 39.353c2.346 0 3.577 2.404 3.577 7.155l-21.466 32.198 3.577 153.836c-2.405 23.869-16.715 52.489-42.931 85.862-11.963 9.559-21.466 9.559-28.621 0-2.405-7.155-7.155-15.485-14.31-25.043l-10.732-21.466-153.837 7.155zm168.147-221.809l-171.724 3.577v89.439l146.681-7.155c4.751 0 7.155 2.404 7.155 7.155 0 4.807-3.577 7.155-10.732 7.155l-143.103 7.155 3.577 100.172 168.147-7.155V446.153zm14.31-114.482c-45.336 0-82.284 3.577-110.905 10.732l-25.043-25.042 279.052-14.31 35.776-39.353 75.129 46.508c0 2.404 1.173 3.577 3.577 3.577 2.346 2.404 1.173 4.807-3.577 7.155l-28.621 35.776 3.577 203.921 3.577 143.103c4.751 66.744-31.025 125.215-107.327 175.302-4.809 2.347-8.386 2.347-10.732 0-2.405-2.404-2.405-5.981 0-10.732-2.405-33.428-14.31-58.472-35.776-75.129-2.405-2.404-3.577-4.807-3.577-7.155 0-2.404 1.173-3.577 3.577-3.577 50.086 2.347 72.724-9.559 67.974-35.776l-3.577-422.154-143.103 7.154zm0-325.56l89.439 53.663c4.751 2.404 3.577 5.981-3.577 10.732-14.31 4.807-26.274 14.31-35.776 28.621-2.405 2.404-4.809 5.981-7.155 10.732-4.809 7.155-9.56 13.136-14.31 17.887l153.836-7.155 46.508-50.086 64.397 53.663c4.751 4.807 4.751 7.155 0 7.155l-196.766 10.732c47.682 26.272 71.552 50.086 71.552 71.552-4.809 21.466-19.119 38.18-42.931 50.086-19.119 2.404-28.621-3.577-28.621-17.887-2.405-50.086-10.732-84.633-25.043-103.75l-57.242 3.577c-7.155 7.155-17.887 19.117-32.198 35.776-28.621 35.776-53.663 64.397-75.129 85.862-4.807 2.404-8.385 3.577-10.732 3.577-2.405 0-2.405-2.347 0-7.155 47.682-100.169 82.285-186.032 103.75-257.584z" fill="#ea6f5a"/></svg>