<?xml version="1.0" standalone="no"?><!DOCTYPE svg PUBLIC "-//W3C//DTD SVG 1.1//EN" "http://www.w3.org/Graphics/SVG/1.1/DTD/svg11.dtd"><svg t="1498032339321" class="icon" style="" viewBox="0 0 1024 1024" version="1.1" xmlns="http://www.w3.org/2000/svg" p-id="9395" xmlns:xlink="http://www.w3.org/1999/xlink" width="32" height="32"><defs><style type="text/css"></style></defs><path d="M1008.190598 469.762219l-0.386639 6.594005c-0.922295 23.273849-9.020567 48.438603-26.863348 68.466296 11.928414 22.158234 16.486524 48.778926 12.218393 74.671649-6.787325 41.699608-23.032199 69.047261-42.038924 87.036038 8.243262 20.122339 11.831754 48.29462-0.04833 85.776441-7.079318 22.836866-17.940447 57.941462-51.737116 81.168994 5.334408 20.654974 3.686159 41.019969-0.726962 55.372931-5.915374 19.104391-13.189018 33.263027-13.480004 33.893329-22.49755 40.488341-60.270357 60.61068-112.686105 60.61068L600.405384 1023.352581c-87.52135 0-171.938514-17.989784-187.988055-21.625599-74.573982-17.115819-109.437935-25.50407-127.572709-29.965521-0.581972-0.194326-0.872958-0.241649-1.45493-0.387646-3.005513-0.776298-5.430061-1.405593-7.5163-1.940243-0.435976-0.09666-1.113601-0.290986-1.453923-0.387646-15.176583 31.711437-46.500374 54.306654-83.981188 54.306654l-94.406342 0c-52.027095 0-94.358012-42.32991-94.358012-94.358012L1.673925 425.492066c0-52.027095 42.32991-94.406342 94.358012-94.406342l94.406342 0c23.516505 0 46.402708 10.910466 62.938568 25.164754l-1.650263-1.405593c3.200846-1.453923 25.360088-12.364389 33.118037-16.43618C390.451407 282.888771 409.991774 173.449829 410.719742 110.077299c0.630302-51.640456 43.008542-93.632057 94.405335-93.632057 72.78175 0 155.017021 99.401434 155.017021 212.330195 0 47.275666-1.50326 73.84702-7.855616 103.376565 135.233998 3.587485 227.748427 3.442496 267.072824 13.771997 61.725287 17.649461 89.21793 68.319293 89.21793 108.079665C1008.57925 463.070547 1008.433254 465.640085 1008.190598 469.762219L1008.190598 469.762219zM221.907059 425.492066c0-17.407812-14.061976-31.467774-31.468781-31.467774l-94.406342 0c-17.358475 0-31.468781 14.060969-31.468781 31.467774l0 503.502503c0 17.358475 14.110306 31.419444 31.468781 31.419444l94.406342 0c17.407812 0 31.468781-14.060969 31.468781-31.419444L221.907059 425.492066 221.907059 425.492066zM908.305865 405.805703c-27.784636-7.273644-25.553407-11.782417-340.24222-11.782417 26.134372-77.727505 29.141899-90.62453 29.141899-165.247849 0-82.624931-58.816434-149.439957-92.07946-149.439957-19.685356 0-31.275461 16.43618-31.467774 31.467774-1.308934 107.207714-45.046451 237.737606-188.81369 297.281001-1.891913 0.777305-4.55811 1.600927-6.497346 2.376218-15.565236 4.65477-24.970428 18.038114-24.970428 32.777714l0.241649 434.600231c0 23.225519 26.619685 27.735299 26.619685 27.735299 8.193925 2.326881 15.08093 4.65477 145.804142 34.76528 2.231229 0.485312 87.957326 20.074009 174.363062 20.074009L772.441565 960.413006c32.438398 0 47.712648-10.279157 57.263837-27.443306 0.194326-0.436982 4.849096-9.892518 8.775897-22.692883 3.588492-11.684751 1.987566-44.219809-32.438398-44.219809l-49.360898 0c-8.728574 0-15.710225-7.079318-15.710225-15.759562 0-8.728574 6.982658-15.709218 15.710225-15.709218l51.300133 0c66.961022 0 73.070722-29.481215 83.10823-61.241989 7.611953-24.146807 12.31606-64.634141-40.827657-64.634141l-61.919613 0c-8.728574 0-15.757548-7.079318-15.757548-15.710225 0-8.727567 7.028974-15.758555 15.757548-15.758555l74.719978 0c53.143716 0 64.148828-44.365805 68.029313-67.834987 3.10318-18.861735-3.10318-58.040135-50.330516-58.040135l-60.951002 0c-8.727567 0-15.757548-7.029981-15.757548-15.759562 0-8.678231 7.029981-15.709218 15.757548-15.709218l62.938568 0c55.034622 0 61.580298-30.547493 62.161263-46.111722 0.436982-10.57115 0.777305-8.970224 0.777305-19.783023C945.690019 444.160482 942.731829 415.648885 908.305865 405.805703L908.305865 405.805703zM143.258266 928.993563c-26.087049 0-47.226329-21.141293-47.226329-47.227336 0-26.037712 21.140287-47.179006 47.226329-47.179006 26.039726 0 47.180013 21.141293 47.180013 47.179006C190.437272 907.853276 169.296985 928.993563 143.258266 928.993563L143.258266 928.993563zM143.258266 866.057008c-8.678231 0-15.758555 7.029981-15.758555 15.709218s7.080325 15.758555 15.758555 15.758555c8.680244 0 15.711232-7.079318 15.711232-15.758555S151.937503 866.057008 143.258266 866.057008L143.258266 866.057008z" p-id="9396" fill="#2edfa3"></path></svg>