<svg xmlns="http://www.w3.org/2000/svg" viewBox="0 0 1024 1024" width="32" height="32" xmlns:v="https://vecta.io/nano"><path d="M1008.191 469.762l-.387 6.594c-.922 23.274-9.021 48.439-26.863 68.466 11.928 22.158 16.487 48.779 12.218 74.672-6.787 41.7-23.032 69.047-42.039 87.036 8.243 20.122 11.832 48.295-.048 85.776-7.079 22.837-17.94 57.941-51.737 81.169 5.334 20.655 3.686 41.02-.727 55.373-5.915 19.104-13.189 33.263-13.48 33.893-22.498 40.488-60.27 60.611-112.686 60.611H600.405c-87.521 0-171.939-17.99-187.988-21.626L284.844 971.76c-.582-.194-.873-.242-1.455-.388l-7.516-1.94c-.436-.097-1.114-.291-1.454-.388-15.177 31.711-46.5 54.307-83.981 54.307H96.032c-52.027 0-94.358-42.33-94.358-94.358V425.492c0-52.027 42.33-94.406 94.358-94.406h94.406c23.517 0 46.403 10.91 62.939 25.165l-1.65-1.406c3.201-1.454 25.36-12.364 33.118-16.436 105.607-55.52 125.147-164.959 125.875-228.331.63-51.64 43.009-93.632 94.405-93.632 72.782 0 155.017 99.401 155.017 212.33 0 47.276-1.503 73.847-7.856 103.377 135.234 3.587 227.748 3.442 267.073 13.772 61.725 17.649 89.218 68.319 89.218 108.08.002 9.067-.144 11.636-.387 15.759h0zm-786.284-44.27c0-17.408-14.062-31.468-31.469-31.468H96.032c-17.358 0-31.469 14.061-31.469 31.468v503.503c0 17.358 14.11 31.419 31.469 31.419h94.406c17.408 0 31.469-14.061 31.469-31.419V425.492h0zm686.399-19.686c-27.785-7.274-25.553-11.782-340.242-11.782 26.134-77.728 29.142-90.625 29.142-165.248 0-82.625-58.816-149.44-92.079-149.44-19.685 0-31.275 16.436-31.468 31.468-1.309 107.208-45.046 237.738-188.814 297.281-1.892.777-4.558 1.601-6.497 2.376-15.565 4.655-24.97 18.038-24.97 32.778l.242 434.6c0 23.226 26.62 27.735 26.62 27.735 8.194 2.327 15.081 4.655 145.804 34.765 2.231.485 87.957 20.074 174.363 20.074h172.036c32.438 0 47.713-10.279 57.264-27.443.194-.437 4.849-9.893 8.776-22.693 3.588-11.685 1.988-44.22-32.438-44.22h-49.361c-8.729 0-15.71-7.079-15.71-15.76a15.64 15.64 0 0 1 15.71-15.709h51.3c66.961 0 73.071-29.481 83.108-61.242 7.612-24.147 12.316-64.634-40.828-64.634h-61.92c-8.729 0-15.758-7.079-15.758-15.71a15.73 15.73 0 0 1 15.758-15.759h74.72c53.144 0 64.149-44.366 68.029-67.835 3.103-18.862-3.103-58.04-50.331-58.04h-60.951a15.73 15.73 0 0 1-15.758-15.76c0-8.678 7.03-15.709 15.758-15.709h62.939c55.035 0 61.58-30.547 62.161-46.112.437-10.571.777-8.97.777-19.783.002-9.844-2.956-38.356-37.382-48.199h0zM143.258 928.994c-26.087 0-47.226-21.141-47.226-47.227 0-26.038 21.14-47.179 47.226-47.179 26.04 0 47.18 21.141 47.18 47.179-.001 26.087-21.141 47.227-47.18 47.227h0zm0-62.937c-8.678 0-15.759 7.03-15.759 15.709s7.08 15.759 15.759 15.759 15.711-7.079 15.711-15.759a15.71 15.71 0 0 0-15.711-15.709h0z" fill="#2edfa3"/></svg>