<?xml version="1.0" standalone="no"?><!DOCTYPE svg PUBLIC "-//W3C//DTD SVG 1.1//EN" "http://www.w3.org/Graphics/SVG/1.1/DTD/svg11.dtd"><svg t="1491818333019" class="icon" style="" viewBox="0 0 1025 1024" version="1.1" xmlns="http://www.w3.org/2000/svg" p-id="2374" xmlns:xlink="http://www.w3.org/1999/xlink" width="32.03125" height="32"><defs><style type="text/css"></style></defs><path d="M956.48 671.36l-136.64 0L819.84 534.848c0-12.608-10.176-22.784-22.656-22.784-12.608 0-22.784 10.24-22.784 22.784l0 136.512L637.824 671.36c-12.544 0-22.72 10.24-22.72 22.784 0 12.48 10.176 22.72 22.72 22.72l136.576 0 0 136.64c0 12.48 10.176 22.656 22.784 22.656 12.48 0 22.656-10.176 22.656-22.656l0-136.64 136.64 0c12.544 0 22.72-10.24 22.72-22.72C979.264 681.6 969.088 671.36 956.48 671.36z" p-id="2375" fill="#d81e06"></path><path d="M672.64 808.576c-77.952 46.144-151.936 83.264-159.424 113.152-11.904-40.896-133.184-91.392-239.552-161.664-109.696-72.32-228.928-185.6-227.712-366.656C48.256 63.552 391.616-2.752 512.448 281.344c115.264-272.768 464.576-220.608 466.88 109.952 0.512 76.416-20.928 139.84-53.76 193.536l32.64 33.664c39.808-61.312 66.688-134.72 66.688-224.448L1024.896 391.296c0-0.064 0-0.192 0-0.32-0.768-98.752-29.76-182.784-84.096-243.072-50.752-56.384-119.68-87.424-193.984-87.424-56.128 0-110.976 17.92-158.656 51.776C559.68 132.416 534.208 158.016 512.64 187.968 490.816 156.672 465.088 130.112 436.48 109.312 389.056 75.008 334.656 56.768 279.104 56.768c-74.496 0-143.68 32.064-194.88 90.24C30.08 208.576 1.152 293.632 0.448 392.96c0 0.128 0 0.256 0 0.32L0.448 396.16c0 90.688 27.456 174.528 81.664 249.088 40.384 55.552 94.848 105.536 166.528 152.832l0 0c38.528 25.344 78.72 48.192 114.304 68.352 41.024 23.36 97.024 55.04 107.264 70.08 6.272 18.304 23.552 30.72 43.072 30.72 0.192 0 0.448 0 0.768 0 19.328-0.32 36.224-12.864 42.24-30.976 10.56-13.952 63.488-44.416 98.752-64.704 16.064-9.28 33.088-19.136 50.176-29.44L672.64 808.576z" p-id="2376" fill="#d81e06"></path></svg>