<?xml version="1.0" standalone="no"?><!DOCTYPE svg PUBLIC "-//W3C//DTD SVG 1.1//EN" "http://www.w3.org/Graphics/SVG/1.1/DTD/svg11.dtd"><svg t="1498621217934" class="icon" style="" viewBox="0 0 1024 1024" version="1.1" xmlns="http://www.w3.org/2000/svg" p-id="2373" xmlns:xlink="http://www.w3.org/1999/xlink" width="32" height="32"><defs><style type="text/css"></style></defs><path d="M975.87084 242.181785c0.070608-2.695389-0.067538-6.232958-0.836041-10.141988-0.826831-5.680373-2.403746-11.57564-5.561669-14.925944-7.402597-12.277628-32.578999-9.298783-32.578999-9.298783L67.470671 207.815069c0 0-25.176402-2.980891-32.577976 9.298783-3.157923 3.349281-4.733814 9.242502-5.560646 14.922874-0.768503 3.90903-0.906649 7.447623-0.837064 10.144034-0.057305 2.781346 0.008186 4.714372 0.008186 4.714372l0 347.561857c0.105401-0.113587 0.227174-0.207731 0.332575-0.319272l0 226.839355c0 0-1.960655 26.307156 6.389524 33.251312 14.3181 11.905144 30.500665 7.969509 30.500665 7.969509l341.951069 0 184.625928 0 346.339006 0c0 0 16.181541 3.933589 30.499641-7.968485 8.349155-6.944156 6.388501-33.252335 6.388501-33.252335l0.001023-226.839355c0.105401 0.11154 0.226151 0.206708 0.331551 0.319272L975.862653 246.895133C975.86163 246.895133 975.928145 244.963131 975.87084 242.181785L975.87084 242.181785zM898.31037 247.644193 531.417235 649.449465c-8.394181 8.727779-19.905352 13.097296-31.429827 13.138228-11.524474-0.040932-23.033599-4.41045-31.428803-13.138228L98.485035 247.644193 898.31037 247.644193 898.31037 247.644193zM67.14526 263.797082l240.860696 275.429003 0.163729 0.170892L67.14526 797.825794 67.14526 263.797082 67.14526 263.797082zM579.726497 822.369793 420.25139 822.369793 90.140996 822.369793l245.144256-254.806313L441.141162 677.607782c15.659655 16.297175 36.515658 25.281803 58.683541 25.281803 0.056282 0 0.107447-0.017396 0.163729-0.017396s0.107447 0.017396 0.163729 0.017396c22.167882 0 43.024909-8.985652 58.683541-25.281803l105.85591-110.044302 241.962797 254.806313L579.726497 822.369793 579.726497 822.369793zM937.220564 797.824771 691.807179 539.395954l0.163729-0.170892 245.249657-275.429003L937.220564 797.824771 937.220564 797.824771z" p-id="2374" fill="#bfcbd9"></path></svg>