<svg xmlns="http://www.w3.org/2000/svg" viewBox="0 0 1024 1024" width="32" height="32" xmlns:v="https://vecta.io/nano"><path d="M512 1024C229.248 1024 0 794.752 0 512S229.248 0 512 0s512 229.248 512 512-229.248 512-512 512zm281.088-147.456C745.856 767.744 638.208 691.2 512 691.2s-233.984 76.416-281.216 185.28C308.608 936.64 406.016 972.8 512 972.8c105.92 0 203.264-36.096 281.088-96.256zM665.6 460.8c0-84.864-68.736-153.6-153.6-153.6s-153.6 68.736-153.6 153.6S427.136 614.4 512 614.4s153.6-68.736 153.6-153.6zM512 51.2C257.536 51.2 51.2 257.536 51.2 512c0 129.344 53.44 246.08 139.264 329.792 46.848-95.936 134.784-168.064 241.408-192.448C358.592 618.112 307.2 545.472 307.2 460.8 307.2 347.712 398.912 256 512 256s204.8 91.712 204.8 204.8c0 84.672-51.392 157.312-124.672 188.544 106.624 24.384 194.496 96.576 241.344 192.512C919.296 758.144 972.8 641.408 972.8 512c0-254.464-206.336-460.8-460.8-460.8z" fill="#bfcbd9"/></svg>