<svg xmlns="http://www.w3.org/2000/svg" viewBox="0 0 1024 1024" width="32" height="32" xmlns:v="https://vecta.io/nano"><path d="M706.432 195.136c-14.656-9.536-34.56-5.44-44.224 9.408-9.536 14.848-5.376 34.688 9.472 44.288C772.032 314.048 832 424.448 832 544.192c0 193.92-157.504 351.68-351.04 351.68s-351.04-157.76-351.04-351.68c0-119.68 60.032-230.144 160.448-295.296 14.848-9.6 19.072-29.504 9.472-44.352-9.728-14.912-29.504-19.136-44.288-9.472-118.784 77.12-189.696 207.616-189.696 349.12C65.856 773.504 252.032 960 480.96 960S896 773.504 896 544.192c0-141.568-70.848-272.064-189.568-349.056zM480.96 572.16c17.664 0 32-14.656 32-32.832v-380.8c0-18.112-14.336-32.768-32-32.768s-32 14.656-32 32.768v380.8c0 18.176 14.272 32.832 32 32.832z"/></svg>