<?xml version="1.0" standalone="no"?><!DOCTYPE svg PUBLIC "-//W3C//DTD SVG 1.1//EN" "http://www.w3.org/Graphics/SVG/1.1/DTD/svg11.dtd"><svg t="1494578496142" class="icon" style="" viewBox="0 0 1024 1024" version="1.1" xmlns="http://www.w3.org/2000/svg" p-id="5969" xmlns:xlink="http://www.w3.org/1999/xlink" width="32" height="32"><defs><style type="text/css"></style></defs><path d="M10.666667 1010.104889V890.168889h24.391111v16.817778c5.077333-5.859556 11.818667-10.602667 20.202666-14.165334 8.384-3.576889 17.969778-5.397333 28.686223-5.397333 11.911111 0 21.710222 1.856 29.319111 5.560889 7.665778 3.704889 13.048889 8.824889 16.156444 15.459555 12.792889-13.987556 29.354667-21.020444 49.770667-21.020444 16.007111 0 28.280889 3.320889 36.885333 9.92 8.590222 6.584889 12.885333 16.725333 12.885334 30.414222v82.346667H201.813333V934.542222c0-8.135111-0.881778-14.001778-2.638222-17.571555-1.813333-3.555556-5.027556-6.442667-9.628444-8.64-4.657778-2.161778-10.154667-3.271111-16.419556-3.271111-11.342222 0-20.714667 2.801778-28.231111 8.433777-7.452444 5.589333-11.235556 14.570667-11.235556 26.915556v69.696h-27.292444V932.195556c0-9.059556-2.225778-15.836444-6.684444-20.352-4.444444-4.515556-11.697778-6.784-21.845334-6.784-7.665778 0-14.762667 1.493333-21.297778 4.544-6.520889 3.000889-11.285333 7.409778-14.193777 13.184-2.951111 5.824-4.394667 14.193778-4.394667 25.088v62.229333H10.666667z" p-id="5970" fill="#cdcdcd"></path><path d="M10.666667 1010.104889V890.168889h24.391111v16.817778c5.077333-5.859556 11.818667-10.602667 20.202666-14.165334 8.384-3.576889 17.969778-5.397333 28.686223-5.397333 11.911111 0 21.710222 1.856 29.319111 5.560889 7.665778 3.704889 13.048889 8.824889 16.156444 15.459555 12.792889-13.987556 29.354667-21.020444 49.770667-21.020444 16.007111 0 28.280889 3.320889 36.885333 9.92 8.590222 6.584889 12.885333 16.725333 12.885334 30.414222v82.346667H201.813333V934.542222c0-8.135111-0.881778-14.001778-2.638222-17.571555-1.813333-3.555556-5.027556-6.442667-9.628444-8.64-4.657778-2.161778-10.154667-3.271111-16.419556-3.271111-11.342222 0-20.714667 2.801778-28.231111 8.433777-7.452444 5.589333-11.235556 14.570667-11.235556 26.915556v69.696h-27.292444V932.195556c0-9.059556-2.225778-15.836444-6.684444-20.352-4.444444-4.515556-11.697778-6.784-21.845334-6.784-7.665778 0-14.762667 1.493333-21.297778 4.544-6.520889 3.000889-11.285333 7.409778-14.193777 13.184-2.951111 5.824-4.394667 14.193778-4.394667 25.088v62.229333H10.666667zM242.033778 950.115556c0-22.200889 8.284444-38.670222 24.903111-49.344 13.838222-8.867556 30.712889-13.340444 50.659555-13.340445 22.165333 0 40.291556 5.397333 54.328889 16.234667 14.072889 10.794667 21.063111 25.713778 21.063111 44.757333 0 15.459556-3.093333 27.598222-9.315555 36.444445-6.215111 8.860444-15.281778 15.715556-27.143111 20.608-11.904 4.892444-24.846222 7.324444-38.940445 7.324444-22.528 0-40.760889-5.347556-54.684444-16.149333-13.930667-10.744889-20.871111-26.261333-20.871111-46.535111z m28.074666 0c0 15.395556 4.501333 26.872889 13.511112 34.503111 9.016889 7.672889 20.352 11.491556 33.976888 11.491555 13.560889 0 24.853333-3.861333 33.863112-11.527111 8.96-7.687111 13.475556-19.384889 13.475555-35.114667 0-14.840889-4.515556-26.097778-13.575111-33.735111-9.059556-7.637333-20.302222-11.463111-33.763556-11.463111-13.632 0-24.96 3.825778-33.976888 11.413334-9.009778 7.601778-13.511111 19.093333-13.511112 34.432z" p-id="5971" fill="#cdcdcd"></path><path d="M317.518222 887.424h0.078222c22.165333 0 40.291556 5.397333 54.328889 16.234667 14.072889 10.794667 21.063111 25.713778 21.063111 44.757333 0 15.459556-3.093333 27.598222-9.315555 36.444444-6.215111 8.860444-15.281778 15.715556-27.143111 20.608-11.904 4.892444-24.846222 7.324444-38.940445 7.324445h-0.078222v-16.689778h0.078222c13.560889 0 24.853333-3.861333 33.863111-11.527111 8.96-7.687111 13.475556-19.384889 13.475556-35.114667 0-14.840889-4.515556-26.097778-13.575111-33.735111-9.059556-7.637333-20.302222-11.463111-33.763556-11.463111h-0.078222v-16.839111z m-75.484444 62.691556c0-22.200889 8.284444-38.670222 24.903111-49.344 13.809778-8.853333 30.670222-13.333333 50.581333-13.340445v16.846222c-13.589333 0.028444-24.910222 3.84-33.905778 11.413334-9.009778 7.601778-13.511111 19.086222-13.511111 34.424889 0 15.395556 4.501333 26.872889 13.511111 34.503111 8.995556 7.658667 20.316444 11.470222 33.905778 11.491555v16.689778c-22.499556-0.007111-40.696889-5.361778-54.613333-16.149333-13.930667-10.744889-20.871111-26.261333-20.871111-46.535111zM407.786667 1010.104889V890.168889h24.391111v16.817778c5.070222-5.859556 11.804444-10.602667 20.188444-14.165334 8.398222-3.576889 17.969778-5.397333 28.700445-5.397333 11.904 0 21.696 1.856 29.304889 5.560889 7.665778 3.704889 13.048889 8.824889 16.149333 15.459555 12.792889-13.987556 29.376-21.020444 49.777778-21.020444 16 0 28.280889 3.320889 36.878222 9.92 8.590222 6.584889 12.899556 16.725333 12.899555 30.414222v82.346667h-27.150222V934.542222c0-8.135111-0.874667-14.001778-2.638222-17.571555-1.813333-3.555556-5.027556-6.442667-9.628444-8.64-4.664889-2.161778-10.147556-3.271111-16.426667-3.271111-11.342222 0-20.714667 2.801778-28.216889 8.433777-7.459556 5.589333-11.242667 14.570667-11.242667 26.915556v69.696h-27.292444V932.195556c0-9.059556-2.225778-15.836444-6.677333-20.352-4.451556-4.515556-11.704889-6.784-21.852445-6.784-7.665778 0-14.762667 1.493333-21.283555 4.544-6.520889 3.000889-11.285333 7.409778-14.193778 13.184-2.958222 5.824-4.401778 14.193778-4.401778 25.088v62.229333h-27.285333z" p-id="5972" fill="#cdcdcd"></path><path d="M407.786667 1010.104889V890.168889h24.391111v16.817778c5.070222-5.859556 11.804444-10.602667 20.188444-14.165334 8.398222-3.576889 17.969778-5.397333 28.700445-5.397333 11.904 0 21.696 1.856 29.304889 5.560889 7.665778 3.704889 13.048889 8.824889 16.149333 15.459555 12.792889-13.987556 29.376-21.020444 49.777778-21.020444 16 0 28.280889 3.320889 36.878222 9.92 8.590222 6.584889 12.899556 16.725333 12.899555 30.414222v82.346667h-27.150222V934.542222c0-8.135111-0.874667-14.001778-2.638222-17.571555-1.813333-3.555556-5.027556-6.442667-9.628444-8.64-4.664889-2.161778-10.147556-3.271111-16.426667-3.271111-11.342222 0-20.714667 2.801778-28.216889 8.433777-7.459556 5.589333-11.242667 14.570667-11.242667 26.915556v69.696h-27.292444V932.195556c0-9.059556-2.225778-15.836444-6.677333-20.352-4.451556-4.515556-11.704889-6.784-21.852445-6.784-7.665778 0-14.762667 1.493333-21.283555 4.544-6.520889 3.000889-11.285333 7.409778-14.193778 13.184-2.958222 5.824-4.401778 14.193778-4.401778 25.088v62.229333h-27.285333z" p-id="5973" fill="#cdcdcd"></path><path d="M759.608889 971.484444l28.216889 2.581334c-4.444444 12.295111-12.679111 21.816889-24.696889 28.593778-12.060444 6.755556-27.441778 10.140444-46.144 10.140444-23.559111 0-42.254222-5.397333-56.028445-16.184889-13.824-10.801778-20.714667-25.941333-20.714666-45.454222 0-20.202667 6.997333-35.84 20.920889-46.990222 13.987556-11.143111 32.056889-16.739556 54.328889-16.739556 21.553778 0 39.153778 5.482667 52.764444 16.391111 13.674667 10.908444 20.508444 26.289778 20.508444 46.065778 0 1.230222-0.042667 3.057778-0.149333 5.447111H668.458667c0.988444 13.184 6.008889 23.281778 15.018666 30.264889 9.009778 7.011556 20.195556 10.517333 33.656889 10.517333 9.991111 0 18.545778-1.962667 25.635556-5.909333 7.104-3.889778 12.693333-10.133333 16.839111-18.723556z m-89.635556-32.903111h89.948445c-1.187556-10.055111-4.664889-17.642667-10.304-22.663111-8.704-7.822222-19.989333-11.754667-33.820445-11.754666-12.529778 0-23.104 3.128889-31.630222 9.365333-8.554667 6.250667-13.276444 14.620444-14.193778 25.052444z" p-id="5974" fill="#cdcdcd"></path><path d="M759.608889 971.484444l28.216889 2.581334c-4.444444 12.295111-12.679111 21.816889-24.696889 28.593778-12.060444 6.755556-27.441778 10.140444-46.144 10.140444l-2.048-0.014222v-16.711111c0.732444 0.028444 1.457778 0.035556 2.204444 0.035555 9.991111 0 18.545778-1.962667 25.635556-5.909333 7.096889-3.882667 12.686222-10.126222 16.832-18.716445z m-44.664889-84.060444h0.547556c21.553778 0 39.153778 5.482667 52.764444 16.391111 13.674667 10.908444 20.508444 26.289778 20.508444 46.065778 0 1.230222-0.042667 3.057778-0.149333 5.447111h-73.671111v-16.739556h44.977778c-1.187556-10.055111-4.664889-17.642667-10.304-22.663111-8.704-7.822222-19.989333-11.754667-33.820445-11.754666l-0.853333 0.007111v-16.753778z m0 125.361778c-22.599111-0.298667-40.611556-5.696-53.980444-16.170667-13.824-10.801778-20.714667-25.941333-20.714667-45.454222 0-20.202667 6.997333-35.84 20.920889-46.990222 13.866667-11.050667 31.765333-16.654222 53.781333-16.739556v16.746667c-12.152889 0.142222-22.442667 3.256889-30.776889 9.358222-8.547556 6.250667-13.269333 14.613333-14.193778 25.052444h44.970667v16.739556h-46.478222c0.988444 13.184 6.008889 23.281778 15.018667 30.264889 8.512 6.627556 18.965333 10.119111 31.459555 10.481778v16.711111z" p-id="5975" fill="#cdcdcd"></path><path d="M1020.053333 991.907556l3.946667 17.955555c-7.665778 1.201778-14.563556 1.820444-20.608 1.820445-9.948444 0-17.6-1.159111-23.104-3.512889-5.44-2.311111-9.265778-5.390222-11.491556-9.208889-2.225778-3.783111-3.370667-11.804444-3.370666-23.978667v-69.013333h-20.046222v-15.808h20.046222v-29.731556l27.185778-12.174222v41.905778h27.441777v15.808h-27.441777v70.129778c0 5.816889 0.469333 9.507556 1.393777 11.171555 0.995556 1.656889 2.538667 2.965333 4.721778 3.975111 2.161778 0.967111 5.276444 1.472 9.315556 1.472 3.057778 0.007111 7.047111-0.277333 12.010666-0.810666z" p-id="5976" fill="#cdcdcd"></path><path d="M1020.053333 991.907556l3.946667 17.955555c-7.665778 1.201778-14.563556 1.820444-20.608 1.820445-9.948444 0-17.6-1.159111-23.104-3.512889-5.44-2.311111-9.265778-5.390222-11.491556-9.208889-2.225778-3.783111-3.370667-11.804444-3.370666-23.978667v-69.013333h-20.046222v-15.808h20.046222v-29.731556l27.185778-12.174222v41.905778h27.441777v15.808h-27.441777v70.129778c0 5.816889 0.469333 9.507556 1.393777 11.171555 0.995556 1.656889 2.538667 2.965333 4.721778 3.975111 2.161778 0.967111 5.276444 1.472 9.315556 1.472 3.057778 0.007111 7.047111-0.277333 12.010666-0.810666z" p-id="5977" fill="#cdcdcd"></path><path d="M807.189333 1010.104889V890.168889h24.540445v17.045333c11.854222-13.191111 28.949333-19.790222 51.264-19.790222 9.742222 0 18.659556 1.315556 26.780444 3.896889 8.184889 2.624 14.243556 6.023111 18.275556 10.254222a34.709333 34.709333 0 0 1 8.547555 14.997333c0.981333 3.776 1.507556 10.375111 1.507556 19.783112v73.749333h-27.349333v-72.981333c0-8.256-1.024-14.449778-3.157334-18.574223-2.119111-4.096-5.902222-7.374222-11.285333-9.792-5.44-2.467556-11.754667-3.697778-19.057778-3.697777-11.655111 0-21.646222 2.773333-30.144 8.241777-8.440889 5.504-12.629333 15.907556-12.629333 31.303111v65.500445h-27.292445z" p-id="5978" fill="#cdcdcd"></path><path d="M807.189333 1010.104889V890.168889h24.540445v17.045333c11.854222-13.191111 28.949333-19.790222 51.264-19.790222 9.742222 0 18.659556 1.315556 26.780444 3.896889 8.184889 2.624 14.243556 6.023111 18.275556 10.254222a34.709333 34.709333 0 0 1 8.547555 14.997333c0.981333 3.776 1.507556 10.375111 1.507556 19.783112v73.749333h-27.349333v-72.981333c0-8.256-1.024-14.449778-3.157334-18.574223-2.119111-4.096-5.902222-7.374222-11.285333-9.792-5.44-2.467556-11.754667-3.697778-19.057778-3.697777-11.655111 0-21.646222 2.773333-30.144 8.241777-8.440889 5.504-12.629333 15.907556-12.629333 31.303111v65.500445h-27.292445z" p-id="5979" fill="#cdcdcd"></path><path d="M186.645333 635.463111c62.250667-30.712889 134.961778-92.273778 160.348445-162.638222 29.155556-80.796444-18.666667-172.899556-107.192889-187.420445-17.635556-2.894222-35.562667-2.460444-53.162667 0.711112v67.164444c26.311111-7.210667 54.165333-5.020444 77.176889 12.366222 48.064 36.302222 16.113778 100.231111-12.224 137.422222-18.439111 24.184889-41.514667 45.802667-64.945778 62.798223v69.596444z m0 102.4V662.385778c104.903111 47.253333 195.719111-0.192 245.269334-59.370667 31.160889 25.457778 55.431111 48.462222 56.583111 47.317333-74.204444 87.267556-198.321778 120.284444-301.852445 87.530667z m-28.231111-90.325333a268.330667 268.330667 0 0 0 28.231111-12.074667v-69.603555C161.159111 584.334222 135.253333 597.333333 114.439111 602.225778c-38.506667-57.095111-39.701333-140.053333-2.887111-195.164445 16.433778-24.583111 44.728889-45.454222 75.100444-53.781333v-67.164444c-33.763556 6.087111-66.289778 22.272-93.148444 44.465777C2.097778 406.094222-6.222222 543.687111 56.753778 639.715556c32.590222 49.720889 78.72 81.955556 129.891555 98.140444V662.385778a264.533333 264.533333 0 0 1-28.231111-14.848z" p-id="5980" fill="#cdcdcd"></path><path d="M868.110222 475.939556c-50.666667 59.754667-132.878222 121.692444-212.622222 141.148444-41.415111 10.104889-84.686222 8.241778-123.413333-10.872889-42.410667-20.949333-73.841778-59.783111-85.802667-108.963555-15.573333-64.049778 5.617778-134.094222 52.152889-167.943112 31.943111-23.239111 74.901333-28.273778 107.576889-2.986666 28.593778 22.101333 42.481778 62.407111 20.878222 101.703111-4.330667 7.879111-24.362667 26.026667-15.139556 34.474667 11.534222 10.567111 42.865778 1.472 54.371556-4.650667 55.480889-29.553778 43.420444-127.424-2.247111-172.728889-52.672-52.245333-128.248889-52.792889-189.447111-16.177778-59.299556 35.484444-98.588444 97.486222-105.628445 166.328889-6.520889 63.836444 14.257778 130.410667 63.089778 179.335111 58.503111 58.616889 131.754667 77.831111 201.685333 72.128 39.637333-3.249778 80.341333-15.836444 116.714667-32.177778 111.971556-50.296889 257.464889-195.953778 267.534222-329.664 0.632889-8.334222 1.258667-16.199111-3.882666-23.480888-5.596444-7.928889-15.658667-12.600889-24.746667-12.657778-9.180444-0.071111-17.991111 5.084444-23.146667 12.558222-5.482667 7.964444-6.641778 17.848889-9.365333 27.569778-17.251556 61.944889-50.496 102.158222-88.561778 147.057778z" p-id="5981" fill="#cdcdcd"></path><path d="M964.935111 140.572444c-59.996444 45.425778-78.513778 105.856-79.004444 179.093334-0.284444 40.853333 2.951111 83.584 2.595555 122.097778-1.052444 3.640889 9.116444 311.239111 10.887111 342.215111 0.504889 8.732444 1.123556 21.013333-0.903111 29.852444-3.946667 17.144889-17.948444 25.272889-33.201778 26.026667-17.024 0.839111-31.836444-11.854222-33.678222-27.669334a35.420444 35.420444 0 0 1-0.412444-4.743111c0-0.967111 0.014222-0.64 0.014222-0.945777-0.931556-17.251556-1.898667-74.019556-3.221333-123.470223-3.207111-120.149333-10.154667-242.076444-11.477334-362.183111-1.187556-107.896889 35.797333-205.560889 138.958223-256.206222 12.487111-6.129778 24.647111-12.672 38.954666-8.234667 20.359111 6.336 30.990222 31.424 19.420445 49.6-9.6 15.118222-34.204444 23.416889-48.931556 34.567111z" p-id="5982" fill="#cdcdcd"></path><path d="M831.580444 54.897778c-1.536-10.154667-5.866667-19.356444-12.906666-27.413334-10.595556-12.124444-24.938667-18.773333-40.376889-18.773333a52.913778 52.913778 0 0 0-26.894222 7.36 56.817778 56.817778 0 0 0-20.408889 20.984889c-0.106667-0.170667-0.192-0.327111-0.298667-0.519111a55.182222 55.182222 0 0 0-19.854222-20.387556 52.771556 52.771556 0 0 0-26.787556-7.36c-2.702222 0-5.447111 0.227556-8.120889 0.64-14.890667 2.289778-27.697778 10.247111-36.138666 22.385778a56.32 56.32 0 0 0-8.931556 21.368889 63.153778 63.153778 0 0 0 0.277334 24.839111 97.813333 97.813333 0 0 0 9.564444 26.083556 136.462222 136.462222 0 0 0 15.288889 22.599111c17.585778 21.575111 39.118222 39.111111 59.953778 56.078222 4.316444 3.52 8.775111 7.153778 13.12 10.752a2.652444 2.652444 0 0 0 3.221333 0.128c18.062222-12.928 52.622222-43.256889 66.048-57.991111 11.022222-12.110222 24.512-28.842667 30.684444-50.730667 3.043556-10.851556 3.918222-20.942222 2.56-30.044444z" p-id="5983" fill="#cdcdcd"></path></svg>