<svg xmlns="http://www.w3.org/2000/svg" xmlns:xlink="http://www.w3.org/1999/xlink" viewBox="0 0 1024 1024" width="32" height="32" xmlns:v="https://vecta.io/nano"><g><path d="M10.667 1010.105V890.169h24.391v16.818c5.077-5.86 11.819-10.603 20.203-14.165 8.384-3.577 17.97-5.397 28.686-5.397 11.911 0 21.71 1.856 29.319 5.561 7.666 3.705 13.049 8.825 16.156 15.46 12.793-13.988 29.355-21.02 49.771-21.02 16.007 0 28.281 3.321 36.885 9.92 8.59 6.585 12.885 16.725 12.885 30.414v82.347h-27.15v-75.563c0-8.135-.882-14.002-2.638-17.572-1.813-3.556-5.028-6.443-9.628-8.64-4.658-2.162-10.155-3.271-16.42-3.271-11.342 0-20.715 2.802-28.231 8.434-7.452 5.589-11.236 14.571-11.236 26.916v69.696h-27.292v-77.909c0-9.06-2.226-15.836-6.684-20.352-4.444-4.516-11.698-6.784-21.845-6.784-7.666 0-14.763 1.493-21.298 4.544-6.521 3.001-11.285 7.41-14.194 13.184-2.951 5.824-4.395 14.194-4.395 25.088v62.229H10.667z"/><path d="M10.667 1010.105V890.169h24.391v16.818c5.077-5.86 11.819-10.603 20.203-14.165 8.384-3.577 17.97-5.397 28.686-5.397 11.911 0 21.71 1.856 29.319 5.561 7.666 3.705 13.049 8.825 16.156 15.46 12.793-13.988 29.355-21.02 49.771-21.02 16.007 0 28.281 3.321 36.885 9.92 8.59 6.585 12.885 16.725 12.885 30.414v82.347h-27.15v-75.563c0-8.135-.882-14.002-2.638-17.572-1.813-3.556-5.028-6.443-9.628-8.64-4.658-2.162-10.155-3.271-16.42-3.271-11.342 0-20.715 2.802-28.231 8.434-7.452 5.589-11.236 14.571-11.236 26.916v69.696h-27.292v-77.909c0-9.06-2.226-15.836-6.684-20.352-4.444-4.516-11.698-6.784-21.845-6.784-7.666 0-14.763 1.493-21.298 4.544-6.521 3.001-11.285 7.41-14.194 13.184-2.951 5.824-4.395 14.194-4.395 25.088v62.229H10.667zm231.367-59.989c0-22.201 8.284-38.67 24.903-49.344 13.838-8.868 30.713-13.34 50.66-13.34 22.165 0 40.292 5.397 54.329 16.235 14.073 10.795 21.063 25.714 21.063 44.757 0 15.46-3.093 27.598-9.316 36.444-6.215 8.86-15.282 15.716-27.143 20.608-11.904 4.892-24.846 7.324-38.94 7.324-22.528 0-40.761-5.348-54.684-16.149-13.931-10.745-20.871-26.261-20.871-46.535zm28.075 0c0 15.396 4.501 26.873 13.511 34.503 9.017 7.673 20.352 11.492 33.977 11.492 13.561 0 24.853-3.861 33.863-11.527 8.96-7.687 13.476-19.385 13.476-35.115 0-14.841-4.516-26.098-13.575-33.735s-20.302-11.463-33.764-11.463c-13.632 0-24.96 3.826-33.977 11.413-9.01 7.602-13.511 19.093-13.511 34.432z"/><path d="M317.518 887.424h.078c22.165 0 40.292 5.397 54.329 16.235 14.073 10.795 21.063 25.714 21.063 44.757 0 15.46-3.093 27.598-9.316 36.444-6.215 8.86-15.282 15.716-27.143 20.608-11.904 4.892-24.846 7.324-38.94 7.324h-.078v-16.69h.078c13.561 0 24.853-3.861 33.863-11.527 8.96-7.687 13.476-19.385 13.476-35.115 0-14.841-4.516-26.098-13.575-33.735s-20.302-11.463-33.764-11.463h-.078v-16.839zm-75.484 62.692c0-22.201 8.284-38.67 24.903-49.344 13.81-8.853 30.67-13.333 50.581-13.34v16.846c-13.589.028-24.91 3.84-33.906 11.413-9.01 7.602-13.511 19.086-13.511 34.425 0 15.396 4.501 26.873 13.511 34.503 8.996 7.659 20.316 11.47 33.906 11.492v16.69c-22.5-.007-40.697-5.362-54.613-16.149-13.931-10.745-20.871-26.261-20.871-46.535zm165.753 59.989V890.169h24.391v16.818c5.07-5.86 11.804-10.603 20.188-14.165 8.398-3.577 17.97-5.397 28.7-5.397 11.904 0 21.696 1.856 29.305 5.561 7.666 3.705 13.049 8.825 16.149 15.46 12.793-13.988 29.376-21.02 49.778-21.02 16 0 28.281 3.321 36.878 9.92 8.59 6.585 12.9 16.725 12.9 30.414v82.347h-27.15v-75.563c0-8.135-.875-14.002-2.638-17.572-1.813-3.556-5.028-6.443-9.628-8.64-4.665-2.162-10.148-3.271-16.427-3.271-11.342 0-20.715 2.802-28.217 8.434-7.46 5.589-11.243 14.571-11.243 26.916v69.696h-27.292v-77.909c0-9.06-2.226-15.836-6.677-20.352s-11.705-6.784-21.852-6.784c-7.666 0-14.763 1.493-21.284 4.544-6.521 3.001-11.285 7.41-14.194 13.184-2.958 5.824-4.402 14.194-4.402 25.088v62.229h-27.285z"/><path d="M407.787 1010.105V890.169h24.391v16.818c5.07-5.86 11.804-10.603 20.188-14.165 8.398-3.577 17.97-5.397 28.7-5.397 11.904 0 21.696 1.856 29.305 5.561 7.666 3.705 13.049 8.825 16.149 15.46 12.793-13.988 29.376-21.02 49.778-21.02 16 0 28.281 3.321 36.878 9.92 8.59 6.585 12.9 16.725 12.9 30.414v82.347h-27.15v-75.563c0-8.135-.875-14.002-2.638-17.572-1.813-3.556-5.028-6.443-9.628-8.64-4.665-2.162-10.148-3.271-16.427-3.271-11.342 0-20.715 2.802-28.217 8.434-7.46 5.589-11.243 14.571-11.243 26.916v69.696h-27.292v-77.909c0-9.06-2.226-15.836-6.677-20.352s-11.705-6.784-21.852-6.784c-7.666 0-14.763 1.493-21.284 4.544-6.521 3.001-11.285 7.41-14.194 13.184-2.958 5.824-4.402 14.194-4.402 25.088v62.229h-27.285zm351.822-38.621l28.217 2.581c-4.444 12.295-12.679 21.817-24.697 28.594-12.06 6.756-27.442 10.14-46.144 10.14-23.559 0-42.254-5.397-56.028-16.185-13.824-10.802-20.715-25.941-20.715-45.454 0-20.203 6.997-35.84 20.921-46.99 13.988-11.143 32.057-16.74 54.329-16.74 21.554 0 39.154 5.483 52.764 16.391 13.675 10.908 20.508 26.29 20.508 46.066 0 1.23-.043 3.058-.149 5.447H668.459c.988 13.184 6.009 23.282 15.019 30.265 9.01 7.012 20.196 10.517 33.657 10.517 9.991 0 18.546-1.963 25.636-5.909 7.104-3.89 12.693-10.133 16.839-18.724zm-89.636-32.903h89.948c-1.188-10.055-4.665-17.643-10.304-22.663-8.704-7.822-19.989-11.755-33.82-11.755-12.53 0-23.104 3.129-31.63 9.365-8.555 6.251-13.276 14.62-14.194 25.052z"/><path d="M759.609 971.484l28.217 2.581c-4.444 12.295-12.679 21.817-24.697 28.594-12.06 6.756-27.442 10.14-46.144 10.14l-2.048-.014v-16.711c.732.028 1.458.036 2.204.036 9.991 0 18.546-1.963 25.636-5.909 7.097-3.883 12.686-10.126 16.832-18.716zm-44.665-84.06h.548c21.554 0 39.154 5.483 52.764 16.391 13.675 10.908 20.508 26.29 20.508 46.066 0 1.23-.043 3.058-.149 5.447h-73.671v-16.74h44.978c-1.188-10.055-4.665-17.643-10.304-22.663-8.704-7.822-19.989-11.755-33.82-11.755l-.853.007v-16.754zm0 125.362c-22.599-.299-40.612-5.696-53.98-16.171-13.824-10.802-20.715-25.941-20.715-45.454 0-20.203 6.997-35.84 20.921-46.99 13.867-11.051 31.765-16.654 53.781-16.74v16.747c-12.153.142-22.443 3.257-30.777 9.358-8.548 6.251-13.269 14.613-14.194 25.052h44.971v16.74h-46.478c.988 13.184 6.009 23.282 15.019 30.265 8.512 6.628 18.965 10.119 31.46 10.482v16.711z"/><use xlink:href="#B"/><use xlink:href="#B"/><use xlink:href="#C"/><use xlink:href="#C"/><path d="M186.645 635.463c62.251-30.713 134.962-92.274 160.348-162.638 29.156-80.796-18.667-172.9-107.193-187.42-17.636-2.894-35.563-2.46-53.163.711v67.164c26.311-7.211 54.165-5.02 77.177 12.366 48.064 36.302 16.114 100.231-12.224 137.422-18.439 24.185-41.515 45.803-64.946 62.798v69.596zm0 102.4v-75.477c104.903 47.253 195.719-.192 245.269-59.371 31.161 25.458 55.431 48.462 56.583 47.317-74.204 87.268-198.322 120.284-301.852 87.531zm-28.231-90.325a268.331 268.331 0 0 0 28.231-12.075V565.86c-25.486 18.475-51.392 31.474-72.206 36.366-38.507-57.095-39.701-140.053-2.887-195.164 16.434-24.583 44.729-45.454 75.1-53.781v-67.164c-33.764 6.087-66.29 22.272-93.148 44.466-91.406 75.513-99.726 213.106-36.75 309.134 32.59 49.721 78.72 81.956 129.892 98.14v-75.47a264.533 264.533 0 0 1-28.231-14.848z"/><path d="M868.11 475.94c-50.667 59.755-132.878 121.692-212.622 141.148-41.415 10.105-84.686 8.242-123.413-10.873-42.411-20.949-73.842-59.783-85.803-108.964-15.573-64.05 5.618-134.094 52.153-167.943 31.943-23.239 74.901-28.274 107.577-2.987 28.594 22.101 42.482 62.407 20.878 101.703-4.331 7.879-24.363 26.027-15.14 34.475 11.534 10.567 42.866 1.472 54.372-4.651 55.481-29.554 43.42-127.424-2.247-172.729-52.672-52.245-128.249-52.793-189.447-16.178-59.3 35.484-98.588 97.486-105.628 166.329-6.521 63.836 14.258 130.411 63.09 179.335 58.503 58.617 131.755 77.831 201.685 72.128 39.637-3.25 80.341-15.836 116.715-32.178 111.972-50.297 257.465-195.954 267.534-329.664.633-8.334 1.259-16.199-3.883-23.481-5.596-7.929-15.659-12.601-24.747-12.658-9.18-.071-17.991 5.084-23.147 12.558-5.483 7.964-6.642 17.849-9.365 27.57-17.252 61.945-50.496 102.158-88.562 147.058z"/><path d="M964.935 140.572c-59.996 45.426-78.514 105.856-79.004 179.093-.284 40.853 2.951 83.584 2.596 122.098-1.052 3.641 9.116 311.239 10.887 342.215.505 8.732 1.124 21.013-.903 29.852-3.947 17.145-17.948 25.273-33.202 26.027-17.024.839-31.836-11.854-33.678-27.669a35.42 35.42 0 0 1-.412-4.743l.014-.946c-.932-17.252-1.899-74.02-3.221-123.47l-11.477-362.183c-1.188-107.897 35.797-205.561 138.958-256.206 12.487-6.13 24.647-12.672 38.955-8.235 20.359 6.336 30.99 31.424 19.42 49.6-9.6 15.118-34.204 23.417-48.932 34.567zM831.58 54.898c-1.536-10.155-5.867-19.356-12.907-27.413-10.596-12.124-24.939-18.773-40.377-18.773a52.914 52.914 0 0 0-26.894 7.36 56.818 56.818 0 0 0-20.409 20.985c-.107-.171-.192-.327-.299-.519A55.182 55.182 0 0 0 710.84 16.15a52.772 52.772 0 0 0-26.788-7.36c-2.702 0-5.447.228-8.121.64-14.891 2.29-27.698 10.247-36.139 22.386a56.32 56.32 0 0 0-8.932 21.369 63.154 63.154 0 0 0 .277 24.839 97.813 97.813 0 0 0 9.564 26.084 136.462 136.462 0 0 0 15.289 22.599c17.586 21.575 39.118 39.111 59.954 56.078l13.12 10.752a2.652 2.652 0 0 0 3.221.128c18.062-12.928 52.622-43.257 66.048-57.991 11.022-12.11 24.512-28.843 30.684-50.731 3.044-10.852 3.918-20.942 2.56-30.044z"/></g><defs ><path id="B" d="M1020.053 991.908l3.947 17.956c-7.666 1.202-14.564 1.82-20.608 1.82-9.948 0-17.6-1.159-23.104-3.513-5.44-2.311-9.266-5.39-11.492-9.209-2.226-3.783-3.371-11.804-3.371-23.979V905.97H945.38v-15.808h20.046V860.43l27.186-12.174v41.906h27.442v15.808h-27.442v70.13c0 5.817.469 9.508 1.394 11.172.996 1.657 2.539 2.965 4.722 3.975 2.162.967 5.276 1.472 9.316 1.472 3.058.007 7.047-.277 12.011-.811z"/><path id="C" d="M807.189 1010.105V890.169h24.54v17.045c11.854-13.191 28.949-19.79 51.264-19.79 9.742 0 18.66 1.316 26.78 3.897 8.185 2.624 14.244 6.023 18.276 10.254a34.709 34.709 0 0 1 8.548 14.997c.981 3.776 1.508 10.375 1.508 19.783v73.749h-27.349v-72.981c0-8.256-1.024-14.45-3.157-18.574-2.119-4.096-5.902-7.374-11.285-9.792-5.44-2.468-11.755-3.698-19.058-3.698-11.655 0-21.646 2.773-30.144 8.242-8.441 5.504-12.629 15.908-12.629 31.303v65.5h-27.292z"/></defs></svg>