<?xml version="1.0" standalone="no"?><!DOCTYPE svg PUBLIC "-//W3C//DTD SVG 1.1//EN" "http://www.w3.org/Graphics/SVG/1.1/DTD/svg11.dtd"><svg t="1496399599788" class="icon" style="" viewBox="0 0 1024 1024" version="1.1" xmlns="http://www.w3.org/2000/svg" p-id="4468" xmlns:xlink="http://www.w3.org/1999/xlink" width="32" height="32"><defs><style type="text/css"></style></defs><path d="M802.254152 432.839079 802.254152 353.678158c0-160.305009-129.949654-290.254663-290.25671-290.254663-160.303986 0-290.254663 129.949654-290.254663 290.254663l0 79.160921-52.773947 0 0 527.738449 686.059268 0L855.028099 432.839079 802.254152 432.839079zM248.129752 353.678158c0-145.488559 118.355595-263.86769 263.868713-263.86769 145.515165 0 263.868713 118.379131 263.868713 263.86769l0 79.160921L248.129752 432.839079 248.129752 353.678158zM828.642149 934.190555 195.355805 934.190555 195.355805 459.226053l633.285321 0L828.641125 934.190555z" p-id="4469" fill="#bfbfbf"></path><path d="M485.612515 713.870684l0 75.191516c0 21.851681 17.702174 39.581484 39.58046 39.581484s39.58046-17.729803 39.58046-39.581484l0-75.191516c31.102369-14.869662 52.773947-46.358841 52.773947-83.129302 0-50.997488-41.358967-92.353384-92.354408-92.353384-50.994418 0-92.353384 41.355897-92.353384 92.353384C432.838567 667.511843 454.510146 698.999998 485.612515 713.870684zM525.191952 564.772924c36.359093 0 65.967434 29.581736 65.967434 65.967434 0 21.463848-10.462283 40.380686-26.386974 52.438303-7.703449 5.823636-16.569374 10.205433-26.386974 12.187577l0 26.38595 0 67.307965c0 7.267521-5.89936 13.193487-13.193487 13.193487-7.293103 0-13.19451-5.925966-13.19451-13.193487l0-67.307965 0-26.38595c-9.816576-1.983167-18.682501-6.363941-26.38595-12.187577-15.925714-12.057617-26.387997-30.975479-26.387997-52.438303C459.224518 594.355683 488.833883 564.772924 525.191952 564.772924z" p-id="4470" fill="#bfbfbf"></path></svg>