<svg xmlns="http://www.w3.org/2000/svg" viewBox="0 0 1024 1024" width="32" height="32" xmlns:v="https://vecta.io/nano"><path d="M800.264 365.975v-79.369C798.575 128.585 667.063 0 507.138 0 346.644 0 215.181 128.916 213.925 287.653v78.604C140.711 371.92 82.91 433.262 82.91 507.971v373.537c0 78.37 63.771 142.137 142.069 142.137h568.887c78.394 0 142.069-63.766 142.069-142.137V507.971c0-76.228-60.275-138.713-135.67-141.996h0zm-536.958-78.038c1.022-127.44 112.54-236.055 241.86-236.055 128.897 0 244.358 108.327 245.712 235.344V364.5H263.306v-76.564h0zm628.758 593.571c0 47.03-51.212 95.248-98.198 95.248H224.978c-46.981 0-96.178-48.218-96.178-95.248V507.971c0-47.03 38.26-99.485 85.266-99.485h568.864c47.006 0 109.135 52.455 109.135 99.485v373.537h-.001zM507.137 509.967c-65.028 0-117.838 52.264-117.838 116.557 0 36.614 17.618 70.71 46.864 92.633V837.71c0 15.738 12.699 28.39 28.365 28.39h85.076c15.694 0 28.413-12.651 28.413-28.39V719.157c29.246-21.971 46.792-56.019 46.792-92.682.001-64.244-52.78-116.508-117.672-116.508h0zm43.203 176.71c-11.103 5.995-18.022 17.642-18.022 30.196v108.094H484.1V716.873c0-12.554-6.92-24.201-18.022-30.196-23.613-12.743-31.696-36.852-31.696-62.866 0-39.706 32.957-71.948 73.447-71.948 40.515 0 73.496 32.241 73.496 71.948-.145 26.013-7.371 50.123-30.984 62.866h0z" fill="#bfcbd9"/></svg>