<?xml version="1.0" standalone="no"?><!DOCTYPE svg PUBLIC "-//W3C//DTD SVG 1.1//EN" "http://www.w3.org/Graphics/SVG/1.1/DTD/svg11.dtd"><svg t="1498621373581" class="icon" style="" viewBox="0 0 1024 1024" version="1.1" xmlns="http://www.w3.org/2000/svg" p-id="4034" xmlns:xlink="http://www.w3.org/1999/xlink" width="32" height="32"><defs><style type="text/css"></style></defs><path d="M800.264045 365.974863c0-27.727477 0-79.037022 0-79.368573-1.689477-158.020832-133.200565-286.60629-293.125768-286.60629-160.49416 0-291.957153 128.915986-293.213772 287.653132l0 78.604164c-73.213392 5.662971-131.014785 67.005-131.014785 141.713441l0 373.537088c0 78.369827 63.771355 142.137089 142.068527 142.137089l568.88707 0c78.394386 0 142.068527-63.766239 142.068527-142.137089l0-373.537088C935.933845 431.742687 875.659123 369.257626 800.264045 365.974863L800.264045 365.974863zM263.306143 287.936587c1.022282-127.44038 112.540033-236.055015 241.860225-236.055015 128.896543 0 244.358113 108.327086 245.711946 235.343818 0 2.284017 0 49.79096 0 77.27489L263.306143 364.50028 263.306143 287.936587 263.306143 287.936587zM892.063729 881.507824c0 47.030083-51.212331 95.248222-98.198411 95.248222L224.978248 976.756047c-46.980964 0-96.178407-48.21814-96.178407-95.248222l0-373.537088c0-47.030083 38.260357-99.484706 85.26588-99.484706l568.863534 0c47.005523 0 109.135497 52.454623 109.135497 99.484706L892.064752 881.507824 892.063729 881.507824zM892.063729 881.507824M507.137254 509.967204c-65.027974 0-117.837684 52.264289-117.837684 116.556506 0 36.613859 17.618245 70.710388 46.864307 92.632654l0 118.553998c0 15.738434 12.699217 28.389555 28.364996 28.389555l85.075546 0c15.694431 0 28.413092-12.651122 28.413092-28.389555L578.01751 719.157388c29.246062-21.971385 46.791652-56.018795 46.791652-92.681773C624.810186 562.231493 572.029128 509.967204 507.137254 509.967204L507.137254 509.967204zM550.340175 686.677682c-11.102861 5.994522-18.022451 17.641781-18.022451 30.195689l0 108.093772-48.21814 0L484.099584 716.873371c0-12.553908-6.91959-24.201167-18.022451-30.195689-23.612767-12.743219-31.695855-36.852289-31.695855-62.86573 0-39.706287 32.956566-71.947564 73.446706-71.947564 40.514699 0 73.495824 32.241276 73.495824 71.947564C581.1785 649.825393 573.952942 673.934462 550.340175 686.677682L550.340175 686.677682z" p-id="4035" fill="#bfcbd9"></path></svg>