<svg xmlns="http://www.w3.org/2000/svg" viewBox="0 0 1025 1024" width="64.063" height="64" xmlns:v="https://vecta.io/nano"><path d="M373.029 631.954c-4.389 2.926-10.24 4.389-16.091 4.389-13.166 0-23.406-7.314-29.257-17.554l-2.926-4.389-93.623-204.8c-1.463-2.926-1.463-4.389-1.463-7.314 0-8.777 7.314-17.554 17.554-17.554 4.389 0 7.314 1.463 10.24 2.926l109.714 78.994c7.314 5.851 17.554 8.777 27.794 8.777 5.851 0 11.703-1.463 17.554-2.926l517.851-231.131C836.754 131.657 684.617 59.977 512 59.977c-282.331 0-512 191.634-512 427.154C0 615.863 68.754 731.429 177.006 808.96c8.777 5.851 14.629 16.091 14.629 27.794 0 4.389-1.463 7.314-1.463 10.24l-23.406 86.309c-1.463 4.389-2.926 8.777-2.926 13.166 0 8.777 7.314 17.554 17.554 17.554 4.389 0 7.314-1.463 10.24-2.926l112.64-64.366c8.777-4.389 17.554-7.314 27.794-7.314 5.851 0 10.24 1.463 14.629 2.926 52.663 14.629 108.251 23.406 166.766 23.406 282.331 0 512-191.634 512-427.154 0-71.68-20.48-138.971-58.514-197.486l-590.994 337.92-2.926 2.926z" fill="#00c901"/></svg>