<?xml version="1.0" standalone="no"?><!DOCTYPE svg PUBLIC "-//W3C//DTD SVG 1.1//EN" "http://www.w3.org/Graphics/SVG/1.1/DTD/svg11.dtd"><svg t="1488701256018" class="icon" style="" viewBox="0 0 1025 1024" version="1.1" xmlns="http://www.w3.org/2000/svg" p-id="6032" xmlns:xlink="http://www.w3.org/1999/xlink" width="64.0625" height="64"><defs><style type="text/css"></style></defs><path d="M373.028571 631.954286c-4.388571 2.925714-10.24 4.388571-16.091428 4.388571-13.165714 0-23.405714-7.314286-29.257143-17.554286l-2.925714-4.388571-93.622857-204.8c-1.462857-2.925714-1.462857-4.388571-1.462858-7.314286 0-8.777143 7.314286-17.554286 17.554286-17.554285 4.388571 0 7.314286 1.462857 10.24 2.925714l109.714286 78.994286c7.314286 5.851429 17.554286 8.777143 27.794286 8.777142 5.851429 0 11.702857-1.462857 17.554285-2.925714L930.377143 241.371429C836.754286 131.657143 684.617143 59.977143 512 59.977143c-282.331429 0-512 191.634286-512 427.154286 0 128.731429 68.754286 244.297143 177.005714 321.828571 8.777143 5.851429 14.628571 16.091429 14.628572 27.794286 0 4.388571-1.462857 7.314286-1.462857 10.24-8.777143 32.182857-21.942857 83.382857-23.405715 86.308571-1.462857 4.388571-2.925714 8.777143-2.925714 13.165714 0 8.777143 7.314286 17.554286 17.554286 17.554286 4.388571 0 7.314286-1.462857 10.24-2.925714l112.64-64.365714c8.777143-4.388571 17.554286-7.314286 27.794285-7.314286 5.851429 0 10.24 1.462857 14.628572 2.925714 52.662857 14.628571 108.251429 23.405714 166.765714 23.405714 282.331429 0 512-191.634286 512-427.154285 0-71.68-20.48-138.971429-58.514286-197.485715L375.954286 629.028571l-2.925715 2.925715z" fill="#00C901" p-id="6033"></path></svg>