<?xml version="1.0" standalone="no"?><!DOCTYPE svg PUBLIC "-//W3C//DTD SVG 1.1//EN" "http://www.w3.org/Graphics/SVG/1.1/DTD/svg11.dtd"><svg t="1488701089944" class="icon" style="" viewBox="0 0 1024 1024" version="1.1" xmlns="http://www.w3.org/2000/svg" p-id="2039" xmlns:xlink="http://www.w3.org/1999/xlink" width="64" height="64"><defs><style type="text/css"></style></defs><path d="M1023.65184 701.28128V197.49376c0-108.5952-88.13056-196.72576-196.79744-196.72576H197.07904C88.48384 0.768 0.35328 88.89856 0.35328 197.49376v629.77536C0.35328 935.86944 88.4224 1024 197.07904 1024h629.77536c96.76288 0 177.28512-69.96992 193.72544-162.00192-52.18816-22.5792-278.33856-120.23808-396.14464-176.45568-89.66656 108.5952-183.55712 173.76256-325.08928 173.76256s-235.99616-87.168-224.67584-193.84832c7.48544-70.03136 55.51616-184.50944 264.1408-164.87424 109.94176 10.29632 160.27136 30.82752 249.94304 60.43648 23.20896-42.53184 42.46528-89.344 57.10848-139.16672h-397.6192v-39.3984h196.73088V311.72096H205.00992v-43.36128h239.96416V166.28736s2.17088-15.98976 19.82464-15.98976h98.36544v118.06208h255.82592v43.36128h-255.82592v70.7328h208.68608c-19.17952 78.09024-48.2816 149.84704-84.74112 212.52096 60.63104 21.94432 336.54272 106.30656 336.54272 106.30656zM283.67872 791.77728c-149.5296 0-173.19424-94.39744-165.26336-133.8624 7.86432-39.26528 51.16416-90.496 134.30784-90.496 95.54944 0 181.12 24.42752 283.83744 74.43968-72.1408 93.95712-160.78848 149.91872-252.88192 149.91872z" fill="#ea6f5a" p-id="2040"></path></svg>