<svg xmlns="http://www.w3.org/2000/svg" viewBox="0 0 1024 1024" width="64" height="64" xmlns:v="https://vecta.io/nano"><path d="M1023.652 701.281V197.494C1023.652 88.899 935.521.768 826.854.768H197.079C88.484.768.353 88.899.353 197.494v629.775C.353 935.869 88.422 1024 197.079 1024h629.775c96.763 0 177.285-69.97 193.725-162.002L624.435 685.542c-89.667 108.595-183.557 173.763-325.089 173.763S63.35 772.137 74.67 665.457c7.485-70.031 55.516-184.509 264.141-164.874 109.942 10.296 160.271 30.828 249.943 60.436 23.209-42.532 42.465-89.344 57.108-139.167H248.243v-39.398h196.731v-70.733H205.01V268.36h239.964V166.287s2.171-15.99 19.825-15.99h98.365V268.36H818.99v43.361H563.164v70.733H771.85c-19.18 78.09-48.282 149.847-84.741 212.521 60.631 21.944 336.543 106.307 336.543 106.307zm-739.973 90.496c-149.53 0-173.194-94.397-165.263-133.862 7.864-39.265 51.164-90.496 134.308-90.496 95.549 0 181.12 24.428 283.837 74.44-72.141 93.957-160.788 149.919-252.882 149.919z" fill="#ea6f5a"/></svg>