<svg height="496pt" viewBox="0 0 496 496.00305" width="496pt" xmlns="http://www.w3.org/2000/svg"><path d="m406.027344 134.035156c-33.34375-26.613281-72.457032-45.042968-114.207032-53.816406-30.4375-4.339844-61.089843-6.996094-91.816406-7.953125v-64.265625c0-3.132812-1.828125-5.980469-4.679687-7.277344-2.855469-1.300781-6.203125-.816406-8.570313 1.238282l-184 160c-1.746094 1.519531-2.753906 3.722656-2.753906 6.039062 0 2.320312 1.007812 4.523438 2.753906 6.042969l184 160c2.367188 2.054687 5.714844 2.539062 8.570313 1.238281 2.851562-1.296875 4.679687-4.144531 4.679687-7.28125v-64c32.0625-.582031 63.746094 7.03125 92.039063 22.128906 39.726562 21.34375 71.855469 54.484375 91.960937 94.847656 11.730469 25.308594 17.707032 52.90625 17.496094 80.800782.054688 8.433594-.414062 16.859375-1.410156 25.234375-.410156 3.285156 1.246094 6.484375 4.171875 8.046875 2.921875 1.5625 6.5 1.160156 9.007812-1.007813 51.945313-44.195312 82.132813-108.769531 82.734375-176.96875-.664062-71.507812-33.765625-138.84375-89.976562-183.046875zm11.375 334.144532c.050781-2.082032.074218-4.214844.074218-6.402344.210938-30.246094-6.277343-60.164063-19.007812-87.597656-21.535156-43.378907-55.988281-79.015626-98.617188-102-32.148437-17.128907-68.246093-25.46875-104.648437-24.179688h-3.3125c-4.375.0625-7.886719 3.628906-7.886719 8v54.449219l-163.808594-142.449219 163.808594-142.445312v54.445312c0 4.347656 3.464844 7.898438 7.808594 8 32.332031.882812 64.597656 3.503906 96.648438 7.859375 39.304687 8.25 76.132812 25.582031 107.542968 50.613281 52.421875 41.191406 83.320313 103.945313 84 170.609375-.058594 56.664063-22.566406 110.996094-62.601562 151.097657zm0 0"/></svg>