<svg xmlns="http://www.w3.org/2000/svg" height="661.333" viewBox="0 0 496 496.003" width="661.333" xmlns:v="https://vecta.io/nano"><path d="M406.027 134.035A273.11 273.11 0 0 0 291.82 80.219c-30.437-4.34-61.09-6.996-91.816-7.953V8c0-3.133-1.828-5.98-4.68-7.277s-6.203-.816-8.57 1.238l-184 160A8.01 8.01 0 0 0 0 168c0 2.32 1.008 4.523 2.754 6.043l184 160c2.367 2.055 5.715 2.539 8.57 1.238s4.68-4.145 4.68-7.281v-64c32.063-.582 63.746 7.031 92.039 22.129a218.02 218.02 0 0 1 91.961 94.848 188.76 188.76 0 0 1 17.496 80.801c.055 8.434-.414 16.859-1.41 25.234a8 8 0 0 0 13.18 7.039c51.945-44.195 82.133-108.77 82.734-176.969-.664-71.508-33.766-138.844-89.977-183.047zm11.375 334.145l.074-6.402c.211-30.246-6.277-60.164-19.008-87.598-21.535-43.379-55.988-79.016-98.617-102A206.97 206.97 0 0 0 195.203 248h-3.312c-4.375.063-7.887 3.629-7.887 8v54.449L20.195 168 184.004 25.555V80a8 8 0 0 0 7.809 8c32.332.883 64.598 3.504 96.648 7.859 39.305 8.25 76.133 25.582 107.543 50.613 52.422 41.191 83.32 103.945 84 170.609-.059 56.664-22.566 110.996-62.602 151.098zm0 0"/></svg>