<svg id="Capa_1" enable-background="new 0 0 512 512" height="512" viewBox="0 0 512 512" width="512" xmlns="http://www.w3.org/2000/svg"><g><path d="m498.141 353.814c2.114-5.922 2.996-12.137 2.625-18.52-1.348-23.194-19.832-42.148-42.994-44.089-2.41-.203-4.828-.218-7.23-.052-.987-27.794-21.843-51.088-49.058-55.367v-35.571c0-15.001-12.205-27.206-27.206-27.206h-11.352c-1.736 0-3.148-1.412-3.148-3.148 0-57.406-46.703-104.109-104.109-104.109-40.99 0-76.517 23.815-93.488 58.332-11.092-8.675-24.982-13.056-39.35-12.184-2.387.143-4.791.44-7.145.881-4.028.755-6.681 4.632-5.926 8.659.756 4.028 4.631 6.684 8.66 5.925 1.746-.327 3.529-.547 5.302-.653 12.198-.734 23.91 3.595 32.619 11.936-3.105 9.858-4.782 20.343-4.782 31.213 0 1.735-1.412 3.148-3.148 3.148h-11.351c-15.001 0-27.206 12.205-27.206 27.206v96.486c0 4.098 3.322 7.42 7.42 7.42s7.42-3.322 7.42-7.42v-96.486c0-6.819 5.547-12.366 12.366-12.366h11.351c9.918 0 17.987-8.069 17.987-17.987 0-49.224 40.046-89.27 89.27-89.27 49.223 0 89.269 40.046 89.269 89.27 0 9.918 8.069 17.987 17.987 17.987h11.352c6.819 0 12.366 5.547 12.366 12.366v165.279h-75.003c-4.098 0-7.42 3.322-7.42 7.42s3.322 7.42 7.42 7.42h114.401v39.388h-120.676s-.042-.947-.083-1.423c-1.9-22.142-19.292-40.064-41.355-42.615-3.876-.449-7.756-.425-11.578.073-5.029-21.053-23.733-35.989-45.734-35.989-18.267 0-34.124 10.474-41.911 25.726h-40.008v-31.973c0-4.098-3.322-7.42-7.42-7.42s-7.42 3.322-7.42 7.42v31.973h-27.032c-6.819 0-12.366 5.547-12.366 12.366v41.861h-10.625c-24.809 0-44.993-20.183-44.993-44.992v-31.041c0-20.27 13.684-38.002 33.201-43.102.021-.006.085-.021.106-.027 5.518-1.431 9.501-6.208 9.915-11.904l.012-.147c.54-6.347 2.427-12.362 5.607-17.874 1.47-2.547 1.803-5.608.914-8.399-.879-2.76-2.89-5.036-5.519-6.246-11.401-5.241-18.767-16.73-18.767-29.269 0-17.754 14.444-32.198 32.198-32.198 7.382 1.261 14.363-5.683 12.16-13.069-1.291-4.685-1.779-9.555-1.453-14.473.567-8.534 3.663-16.652 8.951-23.478 2.51-3.239 1.919-7.9-1.32-10.41-3.239-2.509-7.9-1.919-10.409 1.321-7.105 9.168-11.264 20.09-12.028 31.583-.309 4.651-.071 9.275.707 13.807-24.359 1.746-43.645 22.121-43.645 46.917 0 16.73 8.976 32.18 23.219 40.564-2.882 6.04-4.67 12.475-5.331 19.198-25.581 7.164-43.357 30.537-43.357 57.206v31.041c0 32.991 26.841 59.832 59.832 59.832h65.074c-.083 2.84.906 5.626 2.8 7.792 2.166 2.475 5.293 3.894 8.58 3.894h155.538c4.717 0 8.992-2.947 10.637-7.331.539-1.435.993-2.889 1.387-4.355h153.665c3.278-.028 7.026-.146 10.3-.472 24.515-2.445 44.187-22.029 44.187-46.947 0-12.55-5.016-24.526-13.859-33.328zm-412.845 26.52h74.737c-.293 2.117-.456 4.276-.456 6.472v7.407c-13.638 3.593-24.74 13.073-30.563 25.508h-43.718zm204.039 51.074h-148.843c3.102-11.733 12.637-20.859 24.762-23.284 5.309-1.061 9.163-5.726 9.163-11.094v-10.224c0-17.754 14.444-32.198 32.198-32.198 15.872 0 29.237 11.349 31.779 26.985.495 3.045 2.231 5.791 4.764 7.533 2.527 1.737 5.703 2.373 8.712 1.751 3.384-.702 6.868-.854 10.351-.451h.001c15.085 1.744 26.976 14 28.275 29.142.346 4.049-.044 8.022-1.162 11.84zm175.726-11.739c-1.878.035-24.179.053-24.179.053v-41.861c0-6.819-5.547-12.366-12.366-12.366h-27.032v-114.628c19.618 4.194 34.255 21.772 34.255 42.349-1.422 7.276 4.491 14.798 12.193 13.205 2.823-.525 5.717-.669 8.6-.428 15.85 1.328 28.497 14.296 29.419 30.163.298 5.118-.576 10.07-2.596 14.719-1.812 4.169-.723 8.976 2.714 11.965 7.049 6.126 11.092 14.984 11.092 24.302-.001 17.645-14.454 32.421-32.1 32.527z"/><path d="m270.195 150.482h-27.453c-5.728 0-10.388 4.66-10.388 10.388v41.736h-30.412c-5.728 0-10.388 4.66-10.388 10.388v27.453c0 5.728 4.66 10.388 10.388 10.388h30.412v57.23c0 5.728 4.66 10.388 10.388 10.388h27.453c5.728 0 10.388-4.66 10.388-10.388v-57.23h30.413c5.728 0 10.388-4.66 10.388-10.388v-27.453c0-5.728-4.66-10.388-10.388-10.388h-30.413v-41.736c0-5.728-4.66-10.388-10.388-10.388zm36.349 66.964v18.55h-30.413c-5.728 0-10.388 4.66-10.388 10.388v57.23h-18.55v-57.23c0-5.728-4.66-10.388-10.388-10.388h-30.412v-18.55h30.412c5.728 0 10.388-4.66 10.388-10.388v-41.736h18.55v41.736c0 5.728 4.66 10.388 10.388 10.388z"/></g></svg>