<svg xmlns="http://www.w3.org/2000/svg" viewBox="0 0 24 24" xmlns:v="https://vecta.io/nano"><path d="M8 21H4a1 1 0 0 1-1-1v-4a1 1 0 0 0-2 0v4a3 3 0 0 0 3 3h4a1 1 0 0 0 0-2zm14-6a1 1 0 0 0-1 1v4a1 1 0 0 1-1 1h-4a1 1 0 0 0 0 2h4a3 3 0 0 0 3-3v-4a1 1 0 0 0-1-1zM20 1h-4a1 1 0 0 0 0 2h4a1 1 0 0 1 1 1v4a1 1 0 0 0 2 0V4a3 3 0 0 0-3-3zM2 9a1 1 0 0 0 1-1V4a1 1 0 0 1 1-1h4a1 1 0 0 0 0-2H4a3 3 0 0 0-3 3v4a1 1 0 0 0 1 1zm8-4H6a1 1 0 0 0-1 1v4a1 1 0 0 0 1 1h4a1 1 0 0 0 1-1V6a1 1 0 0 0-1-1zM9 9H7V7h2zm5 2h4a1 1 0 0 0 1-1V6a1 1 0 0 0-1-1h-4a1 1 0 0 0-1 1v4a1 1 0 0 0 1 1zm1-4h2v2h-2zm-5 6H6a1 1 0 0 0-1 1v4a1 1 0 0 0 1 1h4a1 1 0 0 0 1-1v-4a1 1 0 0 0-1-1zm-1 4H7v-2h2zm5-1a1 1 0 0 0 1-1 1 1 0 0 0 0-2h-1a1 1 0 0 0-1 1v1a1 1 0 0 0 1 1zm4-3a1 1 0 0 0-1 1v3a1 1 0 0 0 0 2h1a1 1 0 0 0 1-1v-4a1 1 0 0 0-1-1zm-4 4a1 1 0 1 0 1 1 1 1 0 0 0-1-1z" fill="#000000"/></svg>