<?xml version="1.0" standalone="no"?>
<!DOCTYPE svg PUBLIC "-//W3C//DTD SVG 1.1//EN" "http://www.w3.org/Graphics/SVG/1.1/DTD/svg11.dtd">
<svg t="1638853041525" viewBox="0 0 1024 1024" version="1.1" xmlns="http://www.w3.org/2000/svg" p-id="1238" xmlns:xlink="http://www.w3.org/1999/xlink" width="200" height="200">
	<defs>
		<style type="text/css">
		</style>
	</defs>
	<path d="M244.898909 671.418182h106.589091v106.589091h-106.589091v-106.589091z m-127.906909-191.906909h362.519273V116.992H116.992v362.519273z m64-298.519273h234.589091v234.589091H181.015273V181.015273zM116.992 906.007273h362.519273V543.511273H116.992V906.007273z m64-298.496h234.589091V842.007273H181.015273V607.511273z m63.906909-362.589091h106.589091v106.589091h-106.589091v-106.589091z m362.589091 543.767273h-64v117.294545h234.612364v-64h-170.589091v-53.294545zM842.007273 543.511273h64v64h-64v-64z m-170.589091-298.589091h106.589091v106.589091h-106.589091v-106.589091z m-127.906909-127.930182v362.519273H906.007273V116.992H543.511273zM842.007273 415.511273H607.511273V180.992H842.007273v234.519273z m-234.496 245.294545v-53.294545h170.589091v-64h-234.589091v181.178182h170.589091v-63.883637h-106.589091z m106.589091 63.883637h64v64h-64v-64z m127.906909 74.705454h64v106.589091h-64v-106.589091z m-63.906909-138.589091h127.906909v64h-127.906909v-64z" p-id="1239" fill="#515151">
	</path>
</svg>
