<svg xmlns="http://www.w3.org/2000/svg" viewBox="0 0 490.1 490.1" xmlns:v="https://vecta.io/nano"><path d="M194.5 324.35l15-24.2c3.6-5.8 1.8-13.3-4-16.9-5.7-3.6-13.3-1.8-16.9 4l-15 24.2c-27.2 43.9-66 69.1-106.6 69.1H12.2c-6.8 0-12.2 5.5-12.2 12.3s5.5 12.3 12.2 12.3h54.9c49.3-.2 95.7-29.6 127.4-80.8zm291.9-235.6L427 29.25a12.19 12.19 0 0 0-17.3 0 12.19 12.19 0 0 0 0 17.3l38.6 38.6h-.2-56.7c-49.2 0-95.7 29.4-127.4 80.6l-9.2 14.9c-3.6 5.8-1.8 13.3 4 16.9 2 1.2 4.2 1.8 6.4 1.8 4.1 0 8.1-2.1 10.4-5.8l9.2-14.9c27.2-43.9 66-69 106.6-69H448h.2l-38.6 38.6a12.19 12.19 0 0 0 0 17.3 12.18 12.18 0 0 0 8.7 3.6 12.18 12.18 0 0 0 8.7-3.6l59.5-59.5c4.7-4.8 4.7-12.6-.1-17.3zm-26.1 8.8v-.2-.2l.2.2-.2.2zm-50.7 363.3a12.18 12.18 0 0 0 8.7 3.6 12.18 12.18 0 0 0 8.7-3.6l59.5-59.5a12.19 12.19 0 0 0 0-17.3l-59.5-59.4a12.233 12.233 0 1 0-17.3 17.3l38.6 38.6h-.2-54.9c-40.5 0-79.4-25.2-106.6-69.1l-90.2-145.7c-31.7-51.3-78.2-80.6-127.4-80.6H12.2c-6.8 0-12.2 5.5-12.2 12.3s5.5 12.3 12.2 12.3h56.7c40.5 0 79.4 25.2 106.6 69l90.2 145.7c31.7 51.3 78.2 80.7 127.4 80.7H448h.2l-38.6 38.6c-4.7 4.6-4.7 12.3 0 17.1zm50.7-68.3l.2.2-.2.2v-.2-.2z"/></svg>