<?xml version="1.0" standalone="no"?><!DOCTYPE svg PUBLIC "-//W3C//DTD SVG 1.1//EN" "http://www.w3.org/Graphics/SVG/1.1/DTD/svg11.dtd"><svg t="1494577774466" class="icon" style="" viewBox="0 0 1000 1000" version="1.1" xmlns="http://www.w3.org/2000/svg" p-id="1546" xmlns:xlink="http://www.w3.org/1999/xlink" width="32" height="32"><defs><style type="text/css"></style></defs><path d="M606.6002 922.3466H421.39599214899323l-0.044-8.9349c-0.2019-41.4619-16.2077-80.4015-45.0693-109.6447-28.8307-29.2102-67.1013-45.2983-107.7625-45.2983-26.8969 0-53.3141 7.1961-76.3934 20.8089l-7.845 4.6269L91.7287 621.7774l7.6291-4.496c35.4345-20.8818 60.8103-54.3761 71.4536-94.3121 10.6462-39.9439 5.2896-81.6037-15.0824-117.3065-13.4934-23.656-33.003-43.2837-56.4191-56.7645l-7.7541-4.464 92.5961-162.1611 7.825 4.5559c23.4811 13.6717 50.0981 20.8978 76.974 20.8978 26.4342 0 52.5436-6.9113 75.506-19.9874 23.649-13.4669 43.3534-33.2085 56.9828-57.0923 13.5554-23.7079 20.6049-50.6986 20.391-78.0611l-0.071-9.0469 185.2652-0.029v8.979911619921694c0 85.9048 68.5724 155.7934 152.8598 155.7934 27.0118 0 53.5519-7.2781 76.7512-21.0457l7.854-4.6608 92.5731 162.183-7.6621 4.487c-73.4103 42.9939-98.8491 138.0184-56.7089 211.8264 13.4135 23.559 32.7881 43.1158 56.0324 56.5666l7.7251 4.471L843.9033 784.2493l-7.82-4.5279c-23.3881-13.5438-49.8863-20.703-76.6273-20.703-26.4312 0-52.5406 6.9123-75.507 19.9894-23.649 13.4669-43.3554 33.2055-56.9868 57.0823-13.4135 23.557-20.467 50.2729-20.389 77.2526L606.6002 922.3466zM439.0448 904.3898h149.78273817851846c1.3431-27.0177 9.0622-53.5337 22.5337-77.1927 15.2323-26.6799 37.2573-48.735 63.7015-63.7927 25.6687-14.6161 54.8511-22.3419 84.3933-22.3419 26.9089 0 53.5829 6.4756 77.6906 18.7983l74.9743-131.3539c-22.6196-14.747-41.5356-34.8364-55.03-58.5383-45.5171-79.7209-20.3371-181.6448 55.6826-231.532l-74.9503-131.31c-23.9987 12.5305-50.7557 19.116-77.9394 19.116-91.229 0-165.9834-73.1214-170.5925-164.7703l-149.6698 0.023c-1.2232 27.4094-8.9593 54.2242-22.5886 78.0611-15.2203 26.6709-37.2453 48.731-63.6905 63.7898-25.6657 14.6141-54.8471 22.3399-84.3923 22.3399-27.0528 0-53.8567-6.5396-78.0683-18.9861l-74.9783 131.308c22.7905 14.783 41.8384 34.9463 55.4208 58.7572 22.7275 39.83 28.7077 86.2925 16.8373 130.8293-11.0989 41.6428-36.5787 77.0108-72.1691 100.4699l74.9763 131.336c23.8728-12.3816 50.4959-18.8872 77.5497-18.8872 45.5021 0 88.3118 17.9858 120.5433 50.6417C419.1564 821.6439 436.7133 861.5689 439.0448 904.3898zM514.3259 666.2163c-99.9674 0-181.2957-82.2163-181.2957-183.2727 0-101.0575 81.3293-183.2747 181.2957-183.2747 99.9674 0 181.2967 82.2173 181.2967 183.2747C695.6226 584 614.2933 666.2163 514.3259 666.2163zM514.3259 317.6256c-90.0647 0-163.3381 74.1607-163.3381 165.3179 0 91.1552 73.2734 165.3149 163.3381 165.3149 90.0657 0 163.3391-74.1597 163.3391-165.3149C677.665 391.7874 604.3916 317.6256 514.3259 317.6256z" p-id="1547" fill="#cdcdcd"></path></svg>