<svg xmlns="http://www.w3.org/2000/svg" viewBox="0 0 1000 1000" width="32" height="32" xmlns:v="https://vecta.io/nano"><path d="M606.6 922.347H421.396l-.044-8.935c-.202-41.462-16.208-80.402-45.069-109.645-28.831-29.21-67.101-45.298-107.762-45.298-26.897 0-53.314 7.196-76.393 20.809l-7.845 4.627-92.553-162.127 7.629-4.496c35.435-20.882 60.81-54.376 71.454-94.312 10.646-39.944 5.29-81.604-15.082-117.307-13.493-23.656-33.003-43.284-56.419-56.764l-7.754-4.464 92.596-162.161 7.825 4.556c23.481 13.672 50.098 20.898 76.974 20.898 26.434 0 52.544-6.911 75.506-19.987 23.649-13.467 43.353-33.208 56.983-57.092 13.555-23.708 20.605-50.699 20.391-78.061l-.071-9.047 185.265-.029v8.98c0 85.905 68.572 155.793 152.86 155.793 27.012 0 53.552-7.278 76.751-21.046l7.854-4.661 92.573 162.183-7.662 4.487c-73.41 42.994-98.849 138.018-56.709 211.826 13.414 23.559 32.788 43.116 56.032 56.567l7.725 4.471-92.546 162.138-7.82-4.528c-23.388-13.544-49.886-20.703-76.627-20.703a152.86 152.86 0 0 0-75.507 19.989c-23.649 13.467-43.355 33.206-56.987 57.082-13.413 23.557-20.467 50.273-20.389 77.253l.027 9.004zM439.045 904.39h149.783c1.343-27.018 9.062-53.534 22.534-77.193 15.232-26.68 37.257-48.735 63.702-63.793a170.85 170.85 0 0 1 84.393-22.342c26.909 0 53.583 6.476 77.691 18.798l74.974-131.354c-22.62-14.747-41.536-34.836-55.03-58.538-45.517-79.721-20.337-181.645 55.683-231.532l-74.95-131.31c-23.999 12.53-50.756 19.116-77.939 19.116-91.229 0-165.983-73.121-170.592-164.77l-149.67.023c-1.223 27.409-8.959 54.224-22.589 78.061-15.22 26.671-37.245 48.731-63.69 63.79a170.85 170.85 0 0 1-84.392 22.34c-27.053 0-53.857-6.54-78.068-18.986l-74.978 131.308c22.79 14.783 41.838 34.946 55.421 58.757 22.727 39.83 28.708 86.293 16.837 130.829-11.099 41.643-36.579 77.011-72.169 100.47L190.969 759.4c23.873-12.382 50.496-18.887 77.55-18.887 45.502 0 88.312 17.986 120.543 50.642 30.095 30.489 47.651 70.414 49.983 113.235zm75.281-238.173c-99.967 0-181.296-82.216-181.296-183.273s81.329-183.275 181.296-183.275 181.297 82.217 181.297 183.275-81.329 183.273-181.297 183.273zm0-348.591c-90.065 0-163.338 74.161-163.338 165.318s73.273 165.315 163.338 165.315 163.339-74.16 163.339-165.315-73.273-165.318-163.339-165.318z" fill="#cdcdcd"/></svg>