<?xml version="1.0" encoding="iso-8859-1"?>
<!-- Generator: Adobe Illustrator 19.0.0, SVG Export Plug-In . SVG Version: 6.00 Build 0)  -->
<svg version="1.1" id="Layer_1" xmlns="http://www.w3.org/2000/svg" xmlns:xlink="http://www.w3.org/1999/xlink" x="0px" y="0px"
	 viewBox="0 0 512 512" style="enable-background:new 0 0 512 512;" xml:space="preserve">
<g>
	<g>
		<path d="M457.851,6.592C456.209,2.603,452.305,0,447.995,0H122.043C85.435,0,53.329,29.909,53.329,64v21.333
			c0,34.091,32.107,64,68.715,64h5.952c5.888,0,10.667-4.779,10.667-10.667V96c0-3.755,0.768-7.317,1.963-10.667h-23.296
			c-5.888,0-10.667-4.779-10.667-10.667S111.441,64,117.329,64h53.333h128h139.797c1.6-18.475,7.125-35.84,17.088-45.781
			C458.598,15.168,459.515,10.581,457.851,6.592z"/>
	</g>
</g>
<g>
	<g>
		<path d="M455.547,131.115c-9.963-9.941-15.488-27.307-17.109-45.781h-109.76c1.216,3.349,1.984,6.912,1.984,10.667v42.667
			c0,5.888,4.779,10.667,10.667,10.667h106.667c4.309,0,8.213-2.603,9.856-6.592C459.515,138.752,458.598,134.165,455.547,131.115z"
			/>
	</g>
</g>
<g>
	<g>
		<path d="M447.995,170.667H341.329c-5.888,0-10.667,4.779-10.667,10.667v149.333c0,12.992-7.765,24.597-19.776,29.568
			c-11.755,4.885-25.835,2.091-34.859-6.933l-33.835-33.813c-4.16-4.16-10.923-4.16-15.083,0l-33.835,33.813
			c-9.024,9.003-23.061,11.861-34.859,6.933c-11.989-4.971-19.755-16.576-19.755-29.568V181.333c0-5.888-4.779-10.667-10.667-10.667
			h-5.952c-18.347,0-36.331-5.717-51.989-16.491c-3.264-2.24-7.509-2.517-11.008-0.661c-3.52,1.856-5.717,5.483-5.717,9.451V448
			c0,37.077,24.405,64,58.048,64h336.619c5.888,0,10.667-4.779,10.667-10.667v-320C458.662,175.445,453.883,170.667,447.995,170.667
			z"/>
	</g>
</g>
<g>
	<g>
		<path d="M298.662,85.333h-128c-5.888,0-10.667,4.779-10.667,10.667v234.667c0,4.309,2.603,8.213,6.592,9.856
			c3.989,1.664,8.576,0.747,11.627-2.304l56.448-56.469l56.448,56.448c2.048,2.048,4.779,3.136,7.552,3.136
			c1.365,0,2.752-0.256,4.075-0.811c3.989-1.643,6.592-5.547,6.592-9.856V96C309.329,90.112,304.55,85.333,298.662,85.333z"/>
	</g>
</g>
<g>
</g>
<g>
</g>
<g>
</g>
<g>
</g>
<g>
</g>
<g>
</g>
<g>
</g>
<g>
</g>
<g>
</g>
<g>
</g>
<g>
</g>
<g>
</g>
<g>
</g>
<g>
</g>
<g>
</g>
</svg>
