<svg xmlns="http://www.w3.org/2000/svg" width="163.537" height="163.538" xmlns:v="https://vecta.io/nano"><path d="M163.226 47.876c-4.787-46.347-56.53-45.631-81.462-23.259C56.832 2.246 5.113 1.53.313 47.876c-6.191 59.663 81.45 105.892 81.45 105.892s87.639-46.223 81.463-105.892zM49.231 104.472h-6.053v-6.053h6.053v6.053zm0-19.671h-6.053v-6.053h6.053v6.053zm0-19.671h-6.053v-6.052h6.053v6.052zm71.124 39.342H55.792v-6.053h64.563v6.053zm0-19.671H55.792v-6.053h64.563v6.053zm0-19.671H55.792v-6.052h64.563v6.052z"/></svg>