<?xml version="1.0" standalone="no"?><!DOCTYPE svg PUBLIC "-//W3C//DTD SVG 1.1//EN" "http://www.w3.org/Graphics/SVG/1.1/DTD/svg11.dtd"><svg t="1488457071705" class="icon" style="" viewBox="0 0 1024 1024" version="1.1" xmlns="http://www.w3.org/2000/svg" p-id="5097" xmlns:xlink="http://www.w3.org/1999/xlink" width="64" height="64"><defs><style type="text/css"></style></defs><path d="M783.9232 419.5072c0-6.2208-0.1024-12.40064-0.36352-18.50368 24.87808-19.85024 46.45376-44.672 63.52896-73.088-22.8352 10.97728-47.34976 18.3296-73.11872 21.38624 26.30144-17.30048 46.46912-44.99968 55.99232-78.2336-24.61696 15.9744-51.84512 27.42784-80.81408 33.34656-23.20384-28.2624-56.30976-46.24384-92.91264-46.91456-70.29248-1.24416-127.27296 62.32576-127.27296 141.99296 0 11.29984 1.1008 22.30784 3.3024 32.896-105.856-7.296-199.65952-66.2528-262.4-155.1616-10.94656 21.30432-17.23392 46.19264-17.23392 72.87808 0 50.44224 22.46656 95.2832 56.62208 121.73824-20.89984-1.00352-40.48896-7.77216-57.66656-18.87744 0 0.60928 0 1.22368 0 1.83808 0 70.50752 43.89376 129.5872 102.12352 143.39072-10.68032 3.2512-21.94432 4.94592-33.52064 4.87936-8.22272-0.06144-16.1792-0.9984-23.93088-2.80064 16.18432 57.78944 63.21152 100.00384 118.8864 101.39648-43.5712 38.69184-98.46272 61.77792-158.05952 61.62432-10.27072 0-20.43392-0.74752-30.37696-2.08896 56.35584 41.37472 123.2384 65.46432 195.1488 65.46432C655.91808 826.752 783.9232 608.69632 783.9232 419.5072z" p-id="5098" fill="#47a5ed"></path></svg>