<svg xmlns="http://www.w3.org/2000/svg" viewBox="0 0 1024 1024" width="64" height="64" xmlns:v="https://vecta.io/nano"><path d="M783.923 419.507c0-6.221-.102-12.401-.364-18.504 24.878-19.85 46.454-44.672 63.529-73.088-22.835 10.977-47.35 18.33-73.119 21.386 26.301-17.3 46.469-45 55.992-78.234-24.617 15.974-51.845 27.428-80.814 33.347-23.204-28.262-56.31-46.244-92.913-46.915-70.292-1.244-127.273 62.326-127.273 141.993 0 11.3 1.101 22.308 3.302 32.896-105.856-7.296-199.66-66.253-262.4-155.162-10.947 21.304-17.234 46.193-17.234 72.878 0 50.442 22.467 95.283 56.622 121.738-20.9-1.004-40.489-7.772-57.667-18.877v1.838c0 70.508 43.894 129.587 102.124 143.391-10.68 3.251-21.944 4.946-33.521 4.879-8.223-.061-16.179-.998-23.931-2.801 16.184 57.789 63.212 100.004 118.886 101.396-43.571 38.692-98.463 61.778-158.06 61.624-10.271 0-20.434-.748-30.377-2.089 56.356 41.375 123.238 65.464 195.149 65.464 234.061.082 362.066-217.974 362.066-407.163z" fill="#47a5ed"/></svg>