<?xml version="1.0" standalone="no"?><!DOCTYPE svg PUBLIC "-//W3C//DTD SVG 1.1//EN" "http://www.w3.org/Graphics/SVG/1.1/DTD/svg11.dtd"><svg t="1488456944952" class="icon" style="" viewBox="0 0 1024 1024" version="1.1" xmlns="http://www.w3.org/2000/svg" p-id="3419" xmlns:xlink="http://www.w3.org/1999/xlink" width="64" height="64"><defs><style type="text/css"></style></defs><path d="M-56.57-52.89v0 0z" p-id="3420" fill="#FF3300"></path><path d="M743.314 475.6q-16.558-3.318-21.501-9.921t-1.659-12.145l3.318-5.508q1.094-1.094 2.224-3.318t4.414-9.391 4.978-14.334 2.753-17.652-0.564-19.877-6.638-20.407-13.805-19.877q-15.463-15.463-40.284-19.877t-49.641-0.564-46.885 9.921-36.4 11.581l-14.334 6.638q-11.050 3.318-18.218 4.414t-11.050-0.564-6.073-3.318-1.659-7.732 1.094-10.485 2.753-13.805 3.318-14.899q0-13.239-1.659-24.819t-7.167-25.914-15.994-23.161-26.48-14.334-41.379-3.318-57.372 13.239q-38.624 13.239-78.342 39.154t-68.951 54.052-53.523 54.618-37.53 43.038l-12.145 17.652q-36.4 47.451-54.052 94.901t-16.558 71.707v23.161q6.638 52.958 32.551 94.901t61.785 67.857 84.415 44.132 93.242 26.48 94.337 11.581q81.662 6.638 169.36-12.675t163.289-66.763 106.481-113.649q18.747-38.624 19.313-72.836t-11.581-55.712-31.457-38.060-36.4-24.29-30.327-9.921zM406.816 818.735q-119.156 5.508-202.443-46.356t-83.285-131.301q0-78.342 82.756-135.15t203.007-62.35 203.007 39.718 82.756 123.569q0 79.438-84.415 142.882t-201.348 68.951zM374.83 513.094q-31.986 3.318-57.372 14.899t-39.718 26.48-24.29 31.986-13.805 33.646-4.978 30.327-1.094 21.501l1.094 8.827v4.414q0 3.318 2.224 13.239t6.073 18.218 12.675 18.218 20.972 16.558q72.836 35.306 135.714 21.501t101.503-63.443q15.463-18.747 20.407-46.356t-2.224-55.712-24.819-51.299-52.394-35.871-80.003-7.167zM335.11 721.645q-6.638 1.094-12.675 0.564t-11.050-2.224-9.921-3.847-8.261-6.073-6.073-7.732-4.414-8.827-1.659-10.485q0-12.145 6.638-23.725t18.218-19.877 25.914-9.391q9.921-1.094 19.313 0.564t15.994 5.508 11.581 8.827 7.167 11.581 2.224 14.334q0 12.145-7.167 23.161t-19.313 18.747-26.48 8.827zM428.882 642.207q-7.732 5.508-15.994 4.978t-11.581-7.167l-2.224-4.414q-1.094-2.224-1.094-4.414v-4.414q0-3.318 1.094-5.508l2.224-4.414q1.094-2.224 3.318-3.318l3.318-4.414q8.827-6.638 17.088-5.508t11.581 8.827q3.318 4.414 2.753 9.921t-3.318 10.485-7.167 9.391zM820.562 411.591q6.638 0 12.145-3.318t8.827-8.261 4.414-10.485q1.094-1.094 1.094-3.318 13.239-125.794-88.265-143.446-29.798-5.508-55.182-1.094-7.732 0-13.239 3.847t-9.391 9.921-3.847 12.675q0 11.050 7.732 18.747t18.747 7.732q86.075-19.877 92.677 55.182 2.224 18.747-2.224 35.306 0 11.050 7.732 18.747t18.747 7.732zM801.815 100.478q-48.545-11.050-130.207 4.414-1.094 0-2.224 1.094l-1.094 2.224-1.094 1.094q-12.145 3.318-19.877 13.805t-7.732 22.63q0 16.558 11.050 27.574t26.48 11.050h3.318q1.094 0 4.978-1.094t8.261-1.659 9.391-2.224 8.827-3.318 14.899-1.659 27.044 1.659 35.306 8.261 38.624 16.558 38.624 27.574 33.646 40.813q28.704 65.104 11.050 125.794 0 1.094-0.564 2.224t-1.659 5.508-2.224 8.261-2.224 9.921-1.094 10.485q0 9.921 5.508 16.558t13.805 9.391 19.313 2.753q30.893 0 36.4-37.53 13.239-43.038 14.899-82.192t-5.508-68.951-21.501-55.712-33.116-44.132-41.943-33.116-44.697-23.725-44.697-14.334z" p-id="3421" fill="#FF3300"></path></svg>