<svg xmlns="http://www.w3.org/2000/svg" viewBox="0 0 1024 1024" width="64" height="64" fill="#f30" xmlns:v="https://vecta.io/nano"><path d="M-56.57-52.89h0 0zM743.314 475.6q-16.558-3.318-21.501-9.921-4.943-6.603-1.659-12.145l3.318-5.508q1.094-1.094 2.224-3.318 1.13-2.224 4.414-9.391 3.284-7.167 4.978-14.334 1.694-7.167 2.753-17.652 1.059-10.485-.564-19.877-1.623-9.392-6.638-20.407-5.015-11.015-13.805-19.877-15.463-15.463-40.284-19.877-24.821-4.414-49.641-.564-24.82 3.85-46.885 9.921-22.065 6.071-36.4 11.581l-14.334 6.638q-11.05 3.318-18.218 4.414-7.168 1.096-11.05-.564-3.882-1.66-6.073-3.318-2.191-1.658-1.659-7.732.532-6.074 1.094-10.485.562-4.411 2.753-13.805 2.191-9.394 3.318-14.899 0-13.239-1.659-24.819-1.659-11.58-7.167-25.914-5.508-14.334-15.994-23.161-10.486-8.827-26.48-14.334-15.994-5.507-41.379-3.318-25.385 2.189-57.372 13.239-38.624 13.239-78.342 39.154-39.718 25.915-68.951 54.052-29.233 28.137-53.523 54.618-24.29 26.481-37.53 43.038l-12.145 17.652q-36.4 47.451-54.052 94.901-17.652 47.45-16.558 71.707v23.161q6.638 52.958 32.551 94.901 25.913 41.943 61.785 67.857 35.872 25.914 84.415 44.132 48.543 18.218 93.242 26.48 44.699 8.262 94.337 11.581 81.662 6.638 169.36-12.675 87.698-19.313 163.289-66.763 75.591-47.45 106.481-113.649 18.747-38.624 19.313-72.836.566-34.212-11.581-55.712-12.147-21.5-31.457-38.06-19.31-16.56-36.4-24.29-17.09-7.73-30.327-9.921zM406.816 818.735q-119.156 5.508-202.443-46.356-83.287-51.864-83.285-131.301 0-78.342 82.756-135.15 82.756-56.808 203.007-62.35 120.251-5.542 203.007 39.718 82.756 45.26 82.756 123.569 0 79.438-84.415 142.882-84.415 63.444-201.348 68.951zM374.83 513.094q-31.986 3.318-57.372 14.899-25.386 11.581-39.718 26.48-14.332 14.899-24.29 31.986-9.958 17.087-13.805 33.646-3.847 16.559-4.978 30.327-1.131 13.768-1.094 21.501l1.094 8.827v4.414q0 3.318 2.224 13.239 2.224 9.921 6.073 18.218 3.849 8.297 12.675 18.218 8.826 9.921 20.972 16.558 72.836 35.306 135.714 21.501 62.878-13.805 101.503-63.443 15.463-18.747 20.407-46.356 4.944-27.609-2.224-55.712-7.168-28.103-24.819-51.299-17.651-23.196-52.394-35.871-34.743-12.675-80.003-7.167zm-39.72 208.551q-6.638 1.094-12.675.564-6.037-.53-11.05-2.224-5.013-1.694-9.921-3.847-4.908-2.153-8.261-6.073-3.353-3.92-6.073-7.732-2.72-3.812-4.414-8.827-1.694-5.015-1.659-10.485 0-12.145 6.638-23.725 6.638-11.58 18.218-19.877 11.58-8.297 25.914-9.391 9.921-1.094 19.313.564 9.392 1.658 15.994 5.508 6.602 3.85 11.581 8.827 4.979 4.977 7.167 11.581 2.188 6.604 2.224 14.334 0 12.145-7.167 23.161-7.167 11.016-19.313 18.747-12.146 7.731-26.48 8.827zm93.772-79.438q-7.732 5.508-15.994 4.978-8.262-.53-11.581-7.167l-2.224-4.414q-1.094-2.224-1.094-4.414v-4.414q0-3.318 1.094-5.508l2.224-4.414q1.094-2.224 3.318-3.318l3.318-4.414q8.827-6.638 17.088-5.508 8.261 1.13 11.581 8.827 3.318 4.414 2.753 9.921-.565 5.507-3.318 10.485-2.753 4.978-7.167 9.391zm391.68-230.616q6.638 0 12.145-3.318 5.507-3.318 8.827-8.261 3.32-4.943 4.414-10.485 1.094-1.094 1.094-3.318 13.239-125.794-88.265-143.446-29.798-5.508-55.182-1.094-7.732 0-13.239 3.847-5.507 3.847-9.391 9.921-3.884 6.074-3.847 12.675 0 11.05 7.732 18.747 7.732 7.697 18.747 7.732 86.075-19.877 92.677 55.182 2.224 18.747-2.224 35.306 0 11.05 7.732 18.747 7.732 7.697 18.747 7.732zm-18.747-311.113q-48.545-11.05-130.207 4.414-1.094 0-2.224 1.094l-1.094 2.224-1.094 1.094q-12.145 3.318-19.877 13.805-7.732 10.487-7.732 22.63 0 16.558 11.05 27.574 11.05 11.016 26.48 11.05h3.318q1.094 0 4.978-1.094 3.884-1.094 8.261-1.659 4.377-.565 9.391-2.224 5.014-1.659 8.827-3.318 3.813-1.659 14.899-1.659 11.086 0 27.044 1.659 15.958 1.659 35.306 8.261 19.348 6.602 38.624 16.558 19.276 9.956 38.624 27.574 19.348 17.618 33.646 40.813 28.704 65.104 11.05 125.794 0 1.094-.564 2.224-.564 1.13-1.659 5.508-1.095 4.378-2.224 8.261-1.129 3.883-2.224 9.921-1.095 6.038-1.094 10.485 0 9.921 5.508 16.558 5.508 6.637 13.805 9.391 8.297 2.754 19.313 2.753 30.893 0 36.4-37.53 13.239-43.038 14.899-82.192 1.66-39.154-5.508-68.951-7.168-29.797-21.501-55.712-14.333-25.915-33.116-44.132-18.783-18.217-41.943-33.116-23.16-14.899-44.697-23.725-21.537-8.826-44.697-14.334z"/></svg>