<?xml version="1.0" ?><svg style="enable-background:new 0 0 64 64;" version="1.1" viewBox="0 0 64 64" xml:space="preserve" xmlns="http://www.w3.org/2000/svg" xmlns:xlink="http://www.w3.org/1999/xlink"><style type="text/css">
	.st0{fill:#4267B2;}
	.st1{fill:url(#SVGID_1_);}
	.st2{fill:#FFFFFF;}
	.st3{fill:#C2191E;}
	.st4{fill:#1DA1F3;}
	.st5{fill:#FEFE00;}
	.st6{fill:#25D366;stroke:#FFFFFF;stroke-width:5;stroke-miterlimit:10;}
	.st7{fill:#CB2027;}
	.st8{fill:#0077B5;}
	.st9{fill:url(#SVGID_2_);}
	.st10{fill:url(#SVGID_3_);}
	.st11{fill:#FF004F;}
	.st12{fill:#00F7EF;}
	.st13{fill:#5181B8;}
	.st14{fill:#395976;}
	.st15{fill:#F58220;}
	.st16{fill:#E6162D;}
	.st17{fill:#FF9933;}
</style><g id="guidlines"/><g id="FB"/><g id="ig"/><g id="yt"/><g id="twitter"/><g id="snapchat"/><g id="WA"/><g id="Pinterrest"/><g id="Layer_9"/><g id="Layer_10"/><g id="Layer_11"><path class="st16" d="M18,20.8C18,20.8,6.8,27,2.8,38s8.1,19.2,22.3,19.2S47.9,50,50,44.1s-2.6-8.7-4.1-9.5s-2.8-0.9-3.1-1.4   c-0.2-0.5,0.4-1.6,0.4-1.6s1.5-4.1-1.3-5.7s-7.1-0.6-9.4,0.2c-2.3,0.8-2.9,1.2-3.3,0.9c-0.4-0.3,0.3-1.3,0.4-2.4s0.7-4.7-2.6-5.8   C23.6,17.6,18,20.8,18,20.8z"/><ellipse class="st2" cx="24.4" cy="42.9" rx="16.7" ry="11.1" transform="matrix(0.9961 -8.857419e-02 8.857419e-02 0.9961 -3.7044 2.3338)"/><ellipse cx="23.1" cy="44" rx="8.9" ry="7.6" transform="matrix(0.9489 -0.3155 0.3155 0.9489 -12.6963 9.533)"/><g><ellipse class="st2" cx="20.4" cy="45.5" rx="3.2" ry="2.7" transform="matrix(0.8287 -0.5598 0.5598 0.8287 -21.9959 19.2067)"/><ellipse class="st2" cx="25.6" cy="41.2" rx="1.2" ry="1" transform="matrix(0.8346 -0.5508 0.5508 0.8346 -18.464 20.8935)"/></g><g><g><g><path class="st17" d="M57.5,31c-0.5,0-1-0.1-1.4-0.4c-1.3-0.8-1.7-2.4-0.9-3.7c0.9-1.5,1.4-3.3,1.4-5c0-5.3-4.3-9.7-9.7-9.7      c-1.5,0-3,0.3-4.3,1c-1.3,0.7-2.9,0.1-3.6-1.2c-0.7-1.3-0.1-2.9,1.2-3.6c2.1-1,4.4-1.6,6.7-1.6c8.3,0,15.1,6.8,15.1,15.1      c0,2.8-0.8,5.5-2.2,7.9C59.3,30.6,58.4,31,57.5,31z"/></g><g><path class="st17" d="M49.1,30.5c-0.6,0-1.2-0.2-1.7-0.6c-1.2-0.9-1.4-2.6-0.5-3.8c0.4-0.5,0.6-1.2,0.7-1.9c0-1.6-1.2-3-2.8-3.1      c-0.1,0-0.1,0-0.2,0c-0.6,0-1.2,0.2-1.6,0.5c-1.3,0.8-2.9,0.4-3.7-0.8c-0.8-1.3-0.4-2.9,0.8-3.7c1.5-1,3.3-1.4,5.1-1.3      c4.4,0.3,7.8,4,7.8,8.4c0,0,0,0.1,0,0.1c0,1.9-0.6,3.6-1.8,5.1C50.7,30.1,49.9,30.5,49.1,30.5z"/></g></g></g></g><g id="Layer_12"/><g id="Layer_13"/><g id="Layer_14"/><g id="Layer_15"/><g id="Layer_16"/><g id="Layer_17"/></svg>