<?xml version="1.0" standalone="no"?><!DOCTYPE svg PUBLIC "-//W3C//DTD SVG 1.1//EN" "http://www.w3.org/Graphics/SVG/1.1/DTD/svg11.dtd"><svg t="1488456859225" class="icon" style="" viewBox="0 0 1024 1024" version="1.1" xmlns="http://www.w3.org/2000/svg" p-id="2150" xmlns:xlink="http://www.w3.org/1999/xlink" width="64" height="64"><defs><style type="text/css"></style></defs><path d="M669.102572 367.837646c10.238179 0 20.366863 0.751107 30.413684 1.86958-27.328415-127.249149-163.367765-221.791385-318.656527-221.791385-173.60492 0-315.815829 118.336152-315.815829 268.599458 0 86.735433 47.312562 157.962661 126.375246 213.20687l-31.587416 95.003747 110.404506-55.363935c39.503712 7.819083 71.200622 15.861246 110.62247 15.861246 9.910721 0 19.739577-0.491187 29.485545-1.257643-6.170536-21.115923-9.745968-43.230594-9.745968-66.174142C400.599306 479.812927 519.083837 367.837646 669.102572 367.837646zM499.292072 282.208407c23.778566 0 39.530318 15.643282 39.530318 39.409568 0 23.669072-15.751752 39.531342-39.530318 39.531342-23.671119 0-47.422056-15.861246-47.422056-39.531342C451.870016 297.852712 475.620953 282.208407 499.292072 282.208407zM278.264073 361.149317c-23.670096 0-47.558156-15.861246-47.558156-39.531342 0-23.766286 23.887037-39.409568 47.558156-39.409568 23.669072 0 39.421848 15.643282 39.421848 39.409568C317.685921 345.288071 301.933145 361.149317 278.264073 361.149317z" p-id="2151" fill="#26cb2f"></path><path d="M957.344393 613.995999c0-126.266775-126.347616-229.190913-268.257673-229.190913-150.264329 0-268.611737 102.925161-268.611737 229.190913 0 126.484739 118.347408 229.189889 268.611737 229.189889 31.451316 0 63.173808-7.930623 94.762247-15.84692l86.623893 47.434336-23.75196-78.92556C910.113695 748.287541 957.344393 685.223227 957.344393 613.995999zM601.996199 574.47796c-15.725146 0-31.586392-15.643282-31.586392-31.601742 0-15.737426 15.861246-31.586392 31.586392-31.586392 23.89113 0 39.533388 15.848966 39.533388 31.586392C641.529587 558.834678 625.887328 574.47796 601.996199 574.47796zM775.712659 574.47796c-15.616676 0-31.368428-15.643282-31.368428-31.601742 0-15.737426 15.752776-31.586392 31.368428-31.586392 23.669072 0 39.531342 15.848966 39.531342 31.586392C815.244001 558.834678 799.381731 574.47796 775.712659 574.47796z" p-id="2152" fill="#26cb2f"></path></svg>