<svg xmlns="http://www.w3.org/2000/svg" viewBox="0 0 1024 1024" width="64" height="64" fill="#26cb2f" xmlns:v="https://vecta.io/nano"><path d="M669.103 367.838c10.238 0 20.367.751 30.414 1.87-27.328-127.249-163.368-221.791-318.657-221.791-173.605 0-315.816 118.336-315.816 268.599 0 86.735 47.313 157.963 126.375 213.207l-31.587 95.004 110.405-55.364c39.504 7.819 71.201 15.861 110.622 15.861 9.911 0 19.74-.491 29.486-1.258-6.171-21.116-9.746-43.231-9.746-66.174.001-137.979 118.486-249.954 268.504-249.954zm-169.81-85.629c23.779 0 39.53 15.643 39.53 39.41 0 23.669-15.752 39.531-39.53 39.531-23.671 0-47.422-15.861-47.422-39.531 0-23.765 23.751-39.41 47.422-39.41zM278.265 361.15c-23.67 0-47.558-15.861-47.558-39.531 0-23.766 23.887-39.41 47.558-39.41s39.422 15.643 39.422 39.41c0 23.67-15.753 39.531-39.422 39.531zm679.079 252.846c0-126.267-126.348-229.191-268.258-229.191-150.264 0-268.612 102.925-268.612 229.191 0 126.485 118.347 229.19 268.612 229.19 31.451 0 63.174-7.931 94.762-15.847l86.624 47.434-23.752-78.926c63.393-47.56 110.623-110.625 110.623-181.852zm-355.348-39.518c-15.725 0-31.586-15.643-31.586-31.602 0-15.737 15.861-31.586 31.586-31.586 23.891 0 39.533 15.849 39.533 31.586 0 15.958-15.642 31.602-39.533 31.602zm173.716 0c-15.617 0-31.368-15.643-31.368-31.602 0-15.737 15.753-31.586 31.368-31.586 23.669 0 39.531 15.849 39.531 31.586 0 15.958-15.862 31.602-39.531 31.602z"/></svg>