<?xml version="1.0" standalone="no"?><!DOCTYPE svg PUBLIC "-//W3C//DTD SVG 1.1//EN" "http://www.w3.org/Graphics/SVG/1.1/DTD/svg11.dtd"><svg t="1488457226441" class="icon" style="" viewBox="0 0 1024 1024" version="1.1" xmlns="http://www.w3.org/2000/svg" p-id="6604" xmlns:xlink="http://www.w3.org/1999/xlink" width="64" height="64"><defs><style type="text/css"></style></defs><path d="M506.995009 496.907257 381.830335 496.907257 381.830335 305.519322l110.707404 0c18.09103 0 32.809243-14.604626 32.809243-32.556487 0-17.949814-14.718213-32.552393-32.809243-32.552393l-212.008578 0c5.584182-23.909549 7.270591-45.157479 8.683776-62.956867l0.166799-2.055822c0.404206-4.989641 0.784876-9.702989 1.260713-14.012132 0.945535-8.618285-1.537006-17.092283-6.990205-23.858384-5.500271-6.825452-13.348006-11.096732-22.102391-12.028964-8.810666-0.978281-17.389042 1.475608-24.163329 6.900154-6.77838 5.428639-11.032264 13.226233-11.977799 21.940708-0.603751 5.51255-1.064238 11.294231-1.550309 17.414625l-0.042979 0.552585c-3.815909 48.001247-8.565073 107.74084-87.151919 179.124633-6.497994 5.895267-10.275018 13.948687-10.636245 22.679535-0.361227 8.729825 2.737344 17.066701 8.734942 23.485901 6.187933 6.611581 14.95255 10.403954 24.046672 10.403954 8.203846 0 16.063861-3.025916 22.152533-8.538467 33.040511-30.011524 57.760518-60.869323 75.247798-93.991698 0.602727 0.032746 1.209548 0.049119 1.816369 0.049119l58.189284 0 0 191.387935L167.024038 496.907257c-18.09103 0-32.809243 14.603603-32.809243 32.553417 0 17.951861 14.718213 32.556487 32.809243 32.556487l148.147108 0c-5.961782 94.7909-40.229237 213.795271-162.89909 275.067776-7.884574 3.936659-13.727653 10.694573-16.452717 19.030425-2.707668 8.27957-2.000564 17.105586 1.980097 24.829502 5.624091 10.958586 16.82827 17.765619 29.241998 17.765619 5.136997 0 10.255575-1.215688 14.733563-3.480264 88.605014-44.24469 149.058874-117.018134 178.777733-213.754339 1.201361 4.614088 3.431146 8.942673 6.603395 12.70844l103.458303 122.777301c6.258541 7.408737 15.435551 11.659551 25.178449 11.659551 7.604188 0 15.014972-2.644223 20.849864-7.429203 6.801916-5.561669 10.993378-13.422707 11.802814-22.13616 0.806365-8.695033-1.856277-17.171078-7.497765-23.864524L417.504836 652.429333c-11.55415-13.715373-32.223912-15.609513-46.040592-4.245697-0.938372 0.76748-1.822508 1.583055-2.659573 2.433422 6.377244-27.808346 10.44284-57.367569 12.125155-88.598874l126.066207 0c18.09103 0 32.809243-14.604626 32.809243-32.556487C539.804253 511.51086 525.08604 496.907257 506.995009 496.907257z" p-id="6605" fill="#1696db"></path><path d="M865.192088 234.109945 609.331769 234.109945c-18.09103 0-32.809243 14.604626-32.809243 32.556487l0 472.916866c0 17.951861 14.718213 32.556487 32.809243 32.556487l19.237133 0 4.499477 79.69918 0.057305 0.711198c1.227967 11.884678 8.886391 22.132066 19.968797 26.734898 4.01443 1.673106 8.278547 2.521426 12.675694 2.521426 7.419993 0 14.678304-2.517333 20.436448-7.088442l0.663102-0.527003 102.988606-102.113679 75.334779 0.062422c8.584516 0 17.006326-3.441379 23.121604-9.455349 6.248308-6.161327 9.689686-14.365172 9.689686-23.101137L898.004401 266.666432C898.003378 248.714572 883.284141 234.109945 865.192088 234.109945zM658.862859 707.034998l-16.721847 0L642.141012 299.214732l190.240809 0 0 407.79366-54.960753-0.040932c-7.393387 0-14.641465 2.509147-20.408819 7.065929l-0.821715 0.648776-62.605873 65.067948-2.01489-42.603307-0.063445-0.840134C689.796382 719.618595 675.761738 707.034998 658.862859 707.034998z" p-id="6606" fill="#1696db"></path></svg>