<?xml version="1.0" standalone="no"?><!DOCTYPE svg PUBLIC "-//W3C//DTD SVG 1.1//EN" "http://www.w3.org/Graphics/SVG/1.1/DTD/svg11.dtd"><svg t="1481039837950" class="icon" style="" viewBox="0 0 1000 1000" version="1.1" xmlns="http://www.w3.org/2000/svg" p-id="3515" xmlns:xlink="http://www.w3.org/1999/xlink" width="200" height="200"><defs><style type="text/css"></style></defs><path d="M315.5909 368.1867l394.4914 0 0 157.7947-394.4914 0 0-157.7947ZM847.2291 0H152.14629667797118C68.1094 0 0 68.1113 0 152.145v695.0755210024831c0 84.0337 68.1094 152.1462 152.1463 152.1462h695.0815986209739c84.0344 0 152.1475-68.1113 152.1475-152.1462V152.14496634906038C999.3754 68.1113 931.2635 0 847.2291 0zM184.095 157.7947h657.4844016413408v78.89733840304181H184.09498291831395V157.79467680608366zM788.9815 289.2932v315.5881045052787H236.69408480260816V289.29315539389336H788.981531793171zM867.8796 841.572H157.7960565350721v-78.89608929615325h207.51968921948875c-18.5956-52.5986-42.8635-82.3136-72.9672-127.4664l72.9672-28.326c28.9695 42.8906 54.8088 103.1925 77.6926 155.7924h138.06873895311438c27.3519-52.5986 51.3687-99.6987 71.9904-156.3832l79.3602 29.5089c-20.7516 47.8221-43.1483 100.5756-66.8765 126.8743h202.32960471666885V841.572026001409z" p-id="3516" fill="#22aa29"></path></svg>