<?xml version="1.0" standalone="no"?><!DOCTYPE svg PUBLIC "-//W3C//DTD SVG 1.1//EN" "http://www.w3.org/Graphics/SVG/1.1/DTD/svg11.dtd"><svg t="1481039633307" class="icon" style="" viewBox="0 0 1024 1024" version="1.1" xmlns="http://www.w3.org/2000/svg" p-id="1848" xmlns:xlink="http://www.w3.org/1999/xlink" width="200" height="200"><defs><style type="text/css"></style></defs><path d="M353.362 657.588 353.362 544.873l191.597 0 0-63.865L353.362 481.008 353.362 225.546l127.731 0c0 0 62.574 0 63.866 0-19.958-57.69-63.866-63.865-63.866-63.865l-261.79 0c-2.212-28.731 2.413-74.515 38.261-127.731 0 0-82.015-23.887-95.798 95.798-33.492 118.345-45.031 164.902-95.799 223.529 50.262-1.024 115.87-24.275 150.582-127.73l72.947 0 0 255.462L129.833 481.009c0 0-63.865-3.805-63.865 63.865 1.324 0 63.865 0 63.865 0l159.664 0 0 63.867c0 0-51.703 287.58-255.461 383.191 77.36 0 155.292-8.857 230.175-133.859 19.052-18.67 73.543-80.142 89.152-185.469C354.281 666.369 354.185 661.413 353.362 657.588zM385.295 704.536c-23.606-26.849-38.918-18.71-31.933 63.867 0 0 80.331 100.131 122.867 152.364 33.055 39.23 97.92 85.884 55.446-72.034C436.468 751.25 417.789 739.868 385.295 704.536zM576.891 129.748l0 766.385 95.798 0 0 95.799 159.665-95.799 127.729 0 31.935-31.932L992.018 129.748 576.891 129.748zM928.152 800.336c0 17.65 0 31.932 0 31.932L811.066 832.268l-106.444 63.865 0-63.865-63.866 0c0 0 0-14.281 0-31.932L640.756 193.613c0 0 14.283 0 31.933 0l223.53 0c17.648 0 31.934 0 31.934 0L928.153 800.336z" p-id="1849" fill="#1296db"></path><path d="M352 633.333 352 544l192 0 0-64L352 480 352 224l128.093 0c0 0 62.574 0 63.866 0-19.958-58-63.866-64-63.866-64l-261.79 0c-2.212-29 2.413-72.674 38.261-125.891 0 0-66.957-19.566-90.041 64.946-2.464 9.021-31.19 176.279-102.556 253.489C114.229 351.52 180.837 327 215.549 224L288 224l0 256L127.833 480c0 0-63.865-4-63.865 64C65.291 544 288 544 288 544s0 43.125 0 53.75 1.25 42.25-5.492 75.44C265.932 754.8 190.85 917.293 31.787 991.932c60.274 0 119.94-7.389 180.262-67.879 36.617-36.72 91.758-101.635 118.059-167.679C343 724 347.47 685.265 350.258 665.612 352 653.333 352 633.333 352 633.333zM384.295 704.536c-22.301-25.364-37.199-19.503-32.89 50.844 0.252 4.118 6.133 19.476 14.553 29.959 24.751 30.813 77.532 96.454 109.27 135.429 30.648 36.373 88.271 77.232 63.072-36.709-0.854-3.859-5.051-20.059-36.492-50.622C430 763.632 413.2 735.966 384.295 704.536zM576 128l0 768 96 0 0 95.932L831.354 896l127.729 0L991 864.201 991 128 576 128zM927 800.336c0 17.65 0 31.664 0 31.664L810.066 832 704 896.133 704 832l-64 0c0 0 0-14.014 0-31.664L640 192c0 0 14.039 0 31.688 0l223.53 0c17.648 0 31.781 0 31.781 0L926.999 800.336z" p-id="1850" fill="#1296db"></path></svg>