<?xml version="1.0" standalone="no"?>
<!DOCTYPE svg PUBLIC "-//W3C//DTD SVG 20010904//EN"
 "http://www.w3.org/TR/2001/REC-SVG-20010904/DTD/svg10.dtd">
<svg version="1.0" xmlns="http://www.w3.org/2000/svg"
 width="512.000000pt" height="512.000000pt" viewBox="0 0 512.000000 512.000000"
 preserveAspectRatio="xMidYMid meet">
<metadata>
Created by potrace 1.11, written by Peter Selinger 2001-2013
</metadata>
<g transform="translate(0.000000,512.000000) scale(0.100000,-0.100000)"
fill="#000000" stroke="none">
<path d="M4070 3979 c-61 -7 -128 -25 -119 -33 2 -2 41 -6 86 -10 72 -5 184
-35 206 -55 4 -4 -84 -6 -195 -5 -214 2 -313 -11 -373 -50 -34 -23 -24 -35 22
-27 76 14 236 1 249 -20 9 -15 -47 -23 -151 -24 -137 0 -217 11 -374 51 -151
39 -151 39 -151 22 0 -18 81 -71 180 -117 l85 -40 -110 -1 c-185 -2 -268 -14
-352 -51 -44 -20 -83 -67 -46 -55 23 7 137 19 183 19 62 1 139 -14 151 -29 17
-21 2 -32 -61 -45 -30 -5 -66 -13 -80 -16 -37 -8 -225 -7 -296 0 -33 4 -87 14
-119 22 -62 17 -75 14 -55 -10 34 -41 217 -103 398 -135 133 -24 87 -35 -143
-33 -173 0 -182 2 -540 88 -344 82 -458 89 -647 35 -62 -18 -124 -34 -138 -36
-14 -2 -35 -6 -47 -9 -12 -3 -51 -7 -85 -10 -130 -11 -165 -16 -225 -36 -118
-39 -204 -109 -394 -319 -42 -47 -89 -100 -104 -118 -33 -39 -62 -55 -134 -72
-167 -39 -334 -8 -463 86 -27 20 -51 34 -54 31 -3 -3 17 -27 44 -54 41 -41
134 -97 192 -116 10 -4 8 -6 -6 -6 -28 -1 -106 26 -163 57 -25 14 -87 67 -138
118 -104 105 -97 110 -67 -49 29 -155 88 -268 199 -378 64 -64 66 -68 34 -57
-68 22 -136 58 -197 102 -34 25 -62 41 -62 35 0 -6 27 -37 60 -70 64 -62 167
-118 255 -138 171 -39 416 -4 590 82 71 36 160 92 191 122 7 6 25 23 40 36 51
45 118 118 113 124 -3 3 -41 -15 -85 -40 -43 -25 -82 -45 -86 -45 -5 0 14 35
41 79 27 43 75 127 107 187 121 228 165 275 273 291 l33 5 -21 -29 c-40 -54
-60 -124 -57 -204 4 -106 20 -162 86 -296 54 -109 55 -115 24 -78 -40 48 -106
177 -132 259 -23 73 -37 59 -26 -27 12 -93 22 -124 75 -227 48 -92 104 -167
206 -278 49 -52 81 -95 85 -115 21 -92 18 -235 -8 -414 -6 -42 -4 -44 61 -109
81 -83 126 -172 149 -298 16 -87 28 -116 49 -116 6 0 18 -7 28 -16 16 -15 17
-19 4 -44 -23 -45 -27 -99 -7 -109 44 -23 224 -30 248 -10 9 7 10 19 2 47 -12
43 -51 124 -70 143 -43 45 -101 129 -127 183 -47 100 -96 287 -72 271 6 -3 11
-12 11 -20 0 -8 28 -38 61 -67 141 -121 204 -201 195 -246 -7 -33 0 -45 42
-66 35 -18 38 -27 21 -75 -10 -29 -9 -35 10 -54 19 -19 32 -21 135 -22 63 0
117 3 121 7 18 17 -9 82 -60 145 -30 38 -59 83 -64 101 -15 51 -52 94 -156
179 -116 94 -123 109 -94 221 37 138 99 246 198 339 30 29 52 55 49 59 -11 10
-112 -63 -164 -119 -55 -59 -71 -80 -120 -157 -40 -65 -44 -60 -8 11 44 88
125 208 247 367 11 14 -53 81 -103 107 -29 15 -31 15 -57 -12 -72 -77 -164
-255 -219 -424 -14 -44 -27 -79 -29 -77 -2 2 7 42 20 89 56 198 134 358 212
436 48 49 50 48 133 -10 127 -89 404 -195 630 -241 14 -3 34 -7 45 -9 11 -3
40 -8 65 -12 25 -4 54 -9 65 -11 11 -2 46 -9 78 -14 107 -20 133 -38 325 -226
100 -99 182 -185 182 -192 0 -22 -102 -62 -168 -66 -34 -2 -93 3 -132 12 -66
14 -74 14 -100 -1 -15 -9 -33 -17 -39 -17 -6 0 -25 23 -42 50 -68 110 -136 94
-213 -53 -29 -55 -37 -80 -32 -100 l6 -26 118 3 c93 3 134 -1 193 -16 99 -26
132 -25 237 11 50 17 114 33 144 36 107 13 121 16 148 31 34 21 80 90 80 122
0 34 -109 259 -129 265 -9 3 -62 19 -118 36 -56 17 -107 31 -112 31 -18 0
-106 42 -95 46 13 6 287 -66 434 -114 63 -20 146 -52 184 -72 65 -32 72 -39
89 -85 31 -80 29 -157 -4 -249 -16 -44 -28 -92 -27 -106 3 -39 -8 -49 -46 -43
-43 7 -91 -20 -107 -59 -10 -25 -8 -45 15 -131 14 -56 31 -106 37 -112 9 -9
148 124 260 251 l36 41 -2 234 c-2 250 -13 322 -55 366 -11 13 -53 44 -93 69
-146 95 -267 188 -258 197 5 5 16 7 23 4 11 -4 257 -181 307 -221 12 -9 12 -8
3 9 -6 11 -65 74 -131 140 -125 124 -146 158 -122 203 23 44 43 142 46 234 l4
96 91 139 c119 179 116 176 160 169 118 -21 215 -18 180 4 -13 8 -13 10 1 10
10 0 48 -24 85 -53 38 -29 85 -63 106 -75 37 -23 108 -95 108 -111 0 -4 12
-21 27 -36 24 -23 33 -26 67 -20 59 9 103 33 115 63 6 15 16 35 23 45 11 15 3
37 -57 155 -38 75 -92 174 -118 220 -27 45 -51 99 -54 120 -6 36 -35 85 -80
130 -55 55 -57 64 -33 144 39 131 39 127 -5 90 -22 -17 -41 -29 -44 -27 -2 3
-4 21 -3 40 2 45 -18 54 -54 26 -36 -29 -56 -27 -137 15 -128 65 -228 99 -322
110 -27 3 -54 6 -60 8 -5 1 -39 -1 -75 -5z"/>
</g>
</svg>
